<?xml version="1.0" encoding="UTF-8" standalone="no"?>
<!DOCTYPE svg PUBLIC "-//W3C//DTD SVG 1.1//EN" "http://www.w3.org/Graphics/SVG/1.1/DTD/svg11.dtd">
<!-- Created with Vectornator (http://vectornator.io/) -->
<svg height="100%" stroke-miterlimit="10" style="fill-rule:nonzero;clip-rule:evenodd;stroke-linecap:round;stroke-linejoin:round;" version="1.1" viewBox="0 0 375 375" width="100%" xml:space="preserve" xmlns="http://www.w3.org/2000/svg" xmlns:vectornator="http://vectornator.io" xmlns:xlink="http://www.w3.org/1999/xlink">
<defs/>
<g id="Untitled" vectornator:layerName="Untitled">
<g opacity="1" vectornator:layerName="Group 1">
<g opacity="1" vectornator:layerName="path">
<path d="M187.562 40.625C171.646 40.625 157.893 52.7589 143.562 57.2812C139.848 58.4412 135.898 59.2058 131.875 59.8125C127.852 60.4202 123.742 60.8763 119.719 61.4688C115.706 62.0589 111.768 62.796 108.062 63.9062C106.195 64.4652 104.388 65.1139 102.656 65.9062C100.943 66.6917 99.2918 67.6063 97.75 68.6875C95.8247 70.0343 94.1471 71.6201 92.5938 73.3438C92.2915 73.6749 92.0097 74.0325 91.7188 74.375C90.3325 76.0276 89.0284 77.7733 87.8438 79.625C87.819 79.6637 87.8061 79.7111 87.7812 79.75C85.8565 82.7729 84.1409 85.9869 82.4688 89.25C82.3404 89.5044 82.1904 89.7451 82.0625 90C81.9856 90.1436 81.917 90.2912 81.8438 90.4375C80.3745 93.3715 78.9016 96.2885 77.3438 99.125C75.8219 101.896 74.218 104.593 72.375 107.031C63.3304 118.954 47.0622 127.763 42.1875 142.094C37.5477 155.896 45.125 172.171 45.125 187.5C45.125 197.081 42.1522 207.017 41.0625 216.5C41.0613 216.51 41.0637 216.521 41.0625 216.531C40.4124 222.21 40.4288 227.74 42.1875 232.906C45.7995 243.654 55.8913 251.29 64.5 259.469C65.9346 260.832 67.3093 262.215 68.625 263.625C69.9464 265.04 71.1851 266.473 72.3125 267.969C74.1763 270.434 75.8071 273.164 77.3438 275.969C80.8644 282.395 83.919 289.29 87.8125 295.375C88.9962 297.225 90.3073 298.972 91.6875 300.625C91.9879 300.979 92.2814 301.346 92.5938 301.688C94.1321 303.398 95.776 304.975 97.6875 306.312C99.2365 307.399 100.873 308.305 102.594 309.094C102.602 309.098 102.617 309.09 102.625 309.094C104.338 309.877 106.123 310.539 107.969 311.094C111.687 312.212 115.627 312.939 119.656 313.531C123.676 314.124 127.755 314.58 131.781 315.188C131.791 315.189 131.802 315.186 131.812 315.188C133.815 315.49 135.802 315.844 137.75 316.25C139.718 316.659 141.626 317.135 143.5 317.719C157.889 322.182 171.584 334.375 187.5 334.375C189.49 334.375 191.448 334.185 193.375 333.844C197.23 333.163 200.955 331.893 204.625 330.312C213.797 326.353 222.543 320.545 231.5 317.719C235.215 316.559 239.164 315.795 243.188 315.188C252.239 313.823 261.674 313.174 269.75 310.188C272.442 309.192 274.989 307.942 277.312 306.312C279.224 304.975 280.868 303.399 282.406 301.688C282.719 301.346 283.012 300.979 283.312 300.625C284.693 298.972 286.003 297.225 287.188 295.375C289.102 292.383 290.805 289.2 292.469 285.969C292.496 285.915 292.535 285.867 292.562 285.812C294.234 282.5 295.896 279.182 297.656 275.969C299.193 273.164 300.824 270.434 302.688 267.969C304.949 264.988 307.659 262.195 310.531 259.469C314.84 255.379 319.521 251.431 323.562 247.156C327.604 242.882 331.007 238.28 332.812 232.906C336.924 220.778 331.585 206.814 330.188 193.281C329.988 191.348 329.875 189.408 329.875 187.5C329.875 179.836 331.772 171.93 333.094 164.219C333.426 162.281 333.72 160.376 333.938 158.469C333.952 158.342 333.955 158.22 333.969 158.094C334.574 152.549 334.532 147.145 332.812 142.094C331.007 136.72 327.581 132.12 323.531 127.844C319.483 123.567 314.804 119.621 310.5 115.531C307.63 112.805 304.934 110.012 302.688 107.031C300.824 104.566 299.193 101.836 297.656 99.0312C295.896 95.8182 294.234 92.5003 292.562 89.1875C292.534 89.1329 292.497 89.0858 292.469 89.0312C290.805 85.7997 289.102 82.6172 287.188 79.625C286.004 77.7748 284.693 76.028 283.312 74.375C283.012 74.0214 282.719 73.654 282.406 73.3125C280.868 71.6016 279.224 70.0245 277.312 68.6875C275.771 67.6135 274.118 66.6863 272.406 65.9062C272.397 65.9022 272.384 65.9103 272.375 65.9062C270.663 65.1278 268.876 64.4885 267.031 63.9375C267.022 63.9347 267.009 63.9403 267 63.9375C263.3 62.8345 259.38 62.0901 255.375 61.5C255.365 61.4985 255.354 61.5017 255.344 61.5C251.338 60.9105 247.257 60.4555 243.25 59.8438C243.24 59.8422 243.229 59.8453 243.219 59.8438C239.201 59.2298 235.277 58.4559 231.562 57.2812C229.764 56.7233 227.971 56.0417 226.188 55.2812C223.068 53.9491 219.962 52.3738 216.844 50.75C207.49 45.8786 198.008 40.625 187.562 40.625ZM187.531 79.625C189.483 79.625 191.379 79.9431 193.25 80.375C193.73 80.4858 194.212 80.5852 194.688 80.7188C195.736 81.0133 196.752 81.4252 197.781 81.8125C199.463 82.4452 201.107 83.1749 202.75 83.9688C205.852 85.4683 208.924 87.0443 211.969 88.5625C214.58 89.8646 217.202 91.0556 219.844 91.875C222.432 92.6936 225.175 93.2169 227.969 93.6562C230.329 94.0279 232.713 94.3332 235.094 94.6562C235.177 94.6675 235.261 94.6761 235.344 94.6875C236.618 94.8612 237.84 95.1372 239.094 95.3438C240.774 95.6204 242.426 95.9746 244.031 96.375C246.027 96.8743 248.036 97.3966 249.844 98.2188C251.107 98.7935 252.3 99.4575 253.438 100.25C262.624 106.676 265.377 119.565 272.062 128.406C278.661 137.162 290.651 143.633 294.188 154.156C297.638 164.292 292.031 176.243 292.031 187.5C292.031 190.17 292.375 192.874 292.812 195.594C293.18 197.872 293.611 200.168 294.031 202.438C294.054 202.562 294.071 202.688 294.094 202.812C294.293 203.904 294.394 204.981 294.562 206.062C294.829 207.77 295.019 209.455 295.125 211.125C295.249 213.091 295.346 215.05 295.094 216.938C294.917 218.26 294.619 219.571 294.188 220.844C290.651 231.367 278.705 237.838 272.062 246.594C265.377 255.435 262.624 268.324 253.438 274.75C244.337 281.133 230.724 279.718 219.812 283.125C210.604 286.031 201.72 293.246 191.812 295C190.397 295.248 188.961 295.375 187.5 295.375C186.039 295.375 184.602 295.221 183.188 294.969C173.288 293.207 164.433 285.993 155.188 283.125C144.233 279.718 130.663 281.133 121.562 274.75C112.376 268.324 109.623 255.435 102.938 246.594C96.3386 237.838 84.3491 231.367 80.8125 220.844C77.3621 210.708 82.9688 198.757 82.9688 187.5C82.9688 176.243 77.4053 164.292 80.8125 154.156C84.3923 143.633 96.3268 137.162 102.969 128.406C109.654 119.565 112.407 106.676 121.594 100.25C130.694 93.8668 144.338 95.2823 155.25 91.875C165.774 88.554 175.843 79.625 187.531 79.625Z" fill="#000000" fill-rule="nonzero" opacity="1" stroke="none"/>
</g>
<g opacity="1" vectornator:layerName="path">
<path d="M187.531 79.625C175.843 79.625 165.773 88.554 155.25 91.875C144.338 95.2823 130.694 93.8669 121.594 100.25C112.407 106.676 109.654 119.565 102.969 128.406C96.3268 137.162 84.3923 143.633 80.8125 154.156C77.4053 164.292 82.9688 176.243 82.9688 187.5C82.9688 198.757 77.3621 210.708 80.8125 220.844C84.3491 231.367 96.3387 237.838 102.938 246.594C109.623 255.435 112.376 268.324 121.562 274.75C130.663 281.133 144.233 279.718 155.188 283.125C165.754 286.403 175.812 295.375 187.5 295.375C190.422 295.375 193.245 294.826 196 293.938C198.755 293.049 201.443 291.824 204.094 290.5C206.745 289.176 209.359 287.742 211.969 286.438C214.578 285.133 217.182 283.955 219.812 283.125C230.724 279.718 244.337 281.133 253.438 274.75C262.624 268.324 265.377 255.435 272.062 246.594C278.704 237.838 290.651 231.367 294.188 220.844C297.638 210.665 292.031 198.714 292.031 187.5C292.031 181.872 293.436 176.068 294.406 170.406C295.377 164.744 295.913 159.224 294.188 154.156C290.651 143.633 278.661 137.161 272.062 128.406C270.391 126.196 268.967 123.74 267.625 121.188C266.017 118.128 264.459 115.001 262.812 111.969C262.79 111.927 262.773 111.885 262.75 111.844C261.996 110.464 261.192 109.13 260.344 107.844C260.29 107.761 260.242 107.676 260.188 107.594C259.654 106.795 259.119 105.994 258.531 105.25C258.192 104.821 257.83 104.407 257.469 104C256.25 102.623 254.964 101.318 253.438 100.25C252.3 99.4575 251.107 98.7935 249.844 98.2188C248.025 97.3912 246.042 96.8764 244.031 96.375C242.422 95.9723 240.778 95.6212 239.094 95.3438C237.95 95.1553 236.814 94.9236 235.656 94.75C235.551 94.7356 235.449 94.7018 235.344 94.6875C235.261 94.6762 235.177 94.6675 235.094 94.6562C232.713 94.3338 230.329 94.0274 227.969 93.6562C225.174 93.2161 222.432 92.6934 219.844 91.875C217.202 91.0555 214.581 89.8648 211.969 88.5625C208.93 87.0473 205.844 85.4632 202.75 83.9688C201.367 83.3002 199.97 82.7144 198.562 82.1562C198.299 82.0514 198.046 81.9122 197.781 81.8125C197.772 81.809 197.759 81.816 197.75 81.8125C197.301 81.6436 196.854 81.4824 196.406 81.3125C195.877 81.116 195.35 80.9061 194.812 80.75C194.771 80.7382 194.729 80.7304 194.688 80.7188C194.212 80.5851 193.73 80.4859 193.25 80.375C193.24 80.3727 193.229 80.3773 193.219 80.375C191.355 79.9459 189.477 79.625 187.531 79.625ZM149.656 129.531L172.5 129.531L172.5 152.375C172.5 153.9 172.348 155.371 172.062 156.812C171.997 157.145 171.861 157.454 171.781 157.781C171.535 158.785 171.249 159.772 170.875 160.719C170.643 161.309 170.373 161.872 170.094 162.438C169.75 163.134 169.379 163.815 168.969 164.469C168.656 164.967 168.318 165.435 167.969 165.906C167.495 166.545 167.005 167.164 166.469 167.75C166.058 168.199 165.633 168.616 165.188 169.031C164.6 169.579 163.986 170.078 163.344 170.562C162.877 170.914 162.431 171.278 161.938 171.594C161.317 171.991 160.66 172.319 160 172.656C159.39 172.968 158.797 173.305 158.156 173.562C158.113 173.58 158.075 173.608 158.031 173.625C156.821 174.102 155.551 174.484 154.25 174.75C152.763 175.054 151.233 175.219 149.656 175.219L126.812 175.219L126.812 152.375C126.812 139.76 137.042 129.531 149.656 129.531ZM203.875 129.531L226.719 129.531L249.531 129.531L249.531 152.375L249.531 175.219L226.719 175.219C223.565 175.219 220.545 174.594 217.812 173.438C209.614 169.969 203.875 161.836 203.875 152.375L203.875 129.531ZM149.656 201.812C162.271 201.813 172.5 212.042 172.5 224.656C172.5 237.271 162.271 247.5 149.656 247.5C148.074 247.5 146.526 247.337 145.031 247.031C143.552 246.733 142.143 246.294 140.781 245.719C140.773 245.715 140.759 245.722 140.75 245.719C140.658 245.68 140.591 245.602 140.5 245.562C138.772 244.805 137.191 243.799 135.719 242.656C135.701 242.642 135.674 242.639 135.656 242.625C135.303 242.349 134.992 242.046 134.656 241.75C133.188 240.457 131.815 239.065 130.719 237.438C129.636 235.831 128.838 234.017 128.188 232.156C127.935 231.435 127.68 230.721 127.5 229.969C127.492 229.937 127.476 229.907 127.469 229.875C127.417 229.656 127.361 229.438 127.312 229.219C127.291 229.114 127.27 229.011 127.25 228.906C126.988 227.52 126.813 226.118 126.812 224.656C126.812 212.042 137.042 201.812 149.656 201.812ZM226.719 201.812C239.333 201.813 249.531 212.042 249.531 224.656C249.531 226.463 249.268 228.216 248.875 229.906C248.873 229.916 248.877 229.928 248.875 229.938C248.765 230.4 248.606 230.83 248.469 231.281C248.462 231.303 248.444 231.322 248.438 231.344C248.211 232.088 248.05 232.854 247.75 233.562C247.563 234.004 247.276 234.387 247.062 234.812C246.843 235.251 246.621 235.672 246.375 236.094C246.352 236.134 246.336 236.178 246.312 236.219C245.668 237.306 244.935 238.319 244.125 239.281C244.082 239.332 244.043 239.387 244 239.438C243.773 239.703 243.551 239.964 243.312 240.219C243.307 240.225 243.318 240.244 243.312 240.25C243.145 240.428 243.017 240.639 242.844 240.812C241.812 241.846 240.681 242.773 239.469 243.594C239.077 243.859 238.627 244.04 238.219 244.281C237.993 244.414 237.825 244.625 237.594 244.75C237.162 244.984 236.698 245.168 236.25 245.375C236.025 245.479 235.822 245.622 235.594 245.719C235.464 245.774 235.318 245.791 235.188 245.844C233.942 246.343 232.656 246.756 231.312 247.031C231.251 247.044 231.186 247.05 231.125 247.062C229.702 247.349 228.231 247.5 226.719 247.5C225.226 247.5 223.788 247.336 222.375 247.062C222.345 247.057 222.311 247.068 222.281 247.062C222.23 247.052 222.176 247.042 222.125 247.031C222.115 247.029 222.104 247.034 222.094 247.031C221.802 246.971 221.53 246.869 221.25 246.781C221.196 246.768 221.148 246.733 221.094 246.719C220.205 246.492 219.313 246.266 218.469 245.938C218.438 245.926 218.405 245.918 218.375 245.906C218.192 245.835 217.994 245.795 217.812 245.719C217.406 245.547 217.05 245.289 216.656 245.094C216.614 245.073 216.573 245.052 216.531 245.031C215.879 244.705 215.24 244.354 214.625 243.969C214.128 243.655 213.658 243.318 213.188 242.969C212.569 242.511 211.975 242.048 211.406 241.531C211.384 241.511 211.366 241.489 211.344 241.469C211.092 241.238 210.803 241.054 210.562 240.812C210.4 240.65 210.271 240.459 210.125 240.281C210.1 240.254 210.088 240.215 210.062 240.188C209.578 239.668 209.122 239.126 208.688 238.562C208.647 238.51 208.603 238.46 208.562 238.406C208.195 237.924 207.829 237.449 207.5 236.938C207.492 236.926 207.476 236.918 207.469 236.906C207.049 236.249 206.727 235.545 206.375 234.844C206.331 234.756 206.268 234.679 206.219 234.594C206.021 234.256 205.81 233.926 205.656 233.562C205.614 233.463 205.603 233.35 205.562 233.25C205.047 231.981 204.626 230.651 204.344 229.281C204.342 229.271 204.346 229.26 204.344 229.25C204.039 227.763 203.875 226.233 203.875 224.656C203.875 212.042 214.104 201.812 226.719 201.812Z" fill="#ffffff" fill-rule="nonzero" opacity="1" stroke="none"/>
<path d="M187.531 79.625C175.843 79.625 165.773 88.554 155.25 91.875C144.338 95.2823 130.694 93.8669 121.594 100.25C112.407 106.676 109.654 119.565 102.969 128.406C96.3268 137.162 84.3923 143.633 80.8125 154.156C77.4053 164.292 82.9688 176.243 82.9688 187.5C82.9688 198.757 77.3621 210.708 80.8125 220.844C84.3491 231.367 96.3387 237.838 102.938 246.594C109.623 255.435 112.376 268.324 121.562 274.75C130.663 281.133 144.233 279.718 155.188 283.125C165.754 286.403 175.812 295.375 187.5 295.375C190.422 295.375 193.245 294.826 196 293.938C198.755 293.049 201.443 291.824 204.094 290.5C206.745 289.176 209.359 287.742 211.969 286.438C214.578 285.133 217.182 283.955 219.812 283.125C230.724 279.718 244.337 281.133 253.438 274.75C262.624 268.324 265.377 255.435 272.062 246.594C278.704 237.838 290.651 231.367 294.188 220.844C297.638 210.665 292.031 198.714 292.031 187.5C292.031 181.872 293.436 176.068 294.406 170.406C295.377 164.744 295.913 159.224 294.188 154.156C290.651 143.633 278.661 137.161 272.062 128.406C270.391 126.196 268.967 123.74 267.625 121.188C266.017 118.128 264.459 115.001 262.812 111.969C262.79 111.927 262.773 111.885 262.75 111.844C261.996 110.464 261.192 109.13 260.344 107.844C260.29 107.761 260.242 107.676 260.188 107.594C259.654 106.795 259.119 105.994 258.531 105.25C258.192 104.821 257.83 104.407 257.469 104C256.25 102.623 254.964 101.318 253.438 100.25C252.3 99.4575 251.107 98.7935 249.844 98.2188C248.025 97.3912 246.042 96.8764 244.031 96.375C242.422 95.9723 240.778 95.6212 239.094 95.3438C237.95 95.1553 236.814 94.9236 235.656 94.75C235.551 94.7356 235.449 94.7018 235.344 94.6875C235.261 94.6762 235.177 94.6675 235.094 94.6562C232.713 94.3338 230.329 94.0274 227.969 93.6562C225.174 93.2161 222.432 92.6934 219.844 91.875C217.202 91.0555 214.581 89.8648 211.969 88.5625C208.93 87.0473 205.844 85.4632 202.75 83.9688C201.367 83.3002 199.97 82.7144 198.562 82.1562C198.299 82.0514 198.046 81.9122 197.781 81.8125C197.772 81.809 197.759 81.816 197.75 81.8125C197.301 81.6436 196.854 81.4824 196.406 81.3125C195.877 81.116 195.35 80.9061 194.812 80.75C194.771 80.7382 194.729 80.7304 194.688 80.7188C194.212 80.5851 193.73 80.4859 193.25 80.375C193.24 80.3727 193.229 80.3773 193.219 80.375C191.355 79.9459 189.477 79.625 187.531 79.625ZM149.656 129.531L172.5 129.531L172.5 152.375C172.5 153.9 172.348 155.371 172.062 156.812C171.997 157.145 171.861 157.454 171.781 157.781C171.535 158.785 171.249 159.772 170.875 160.719C170.643 161.309 170.373 161.872 170.094 162.438C169.75 163.134 169.379 163.815 168.969 164.469C168.656 164.967 168.318 165.435 167.969 165.906C167.495 166.545 167.005 167.164 166.469 167.75C166.058 168.199 165.633 168.616 165.188 169.031C164.6 169.579 163.986 170.078 163.344 170.562C162.877 170.914 162.431 171.278 161.938 171.594C161.317 171.991 160.66 172.319 160 172.656C159.39 172.968 158.797 173.305 158.156 173.562C158.113 173.58 158.075 173.608 158.031 173.625C156.821 174.102 155.551 174.484 154.25 174.75C152.763 175.054 151.233 175.219 149.656 175.219L126.812 175.219L126.812 152.375C126.812 139.76 137.042 129.531 149.656 129.531ZM203.875 129.531L226.719 129.531L249.531 129.531L249.531 152.375L249.531 175.219L226.719 175.219C223.565 175.219 220.545 174.594 217.812 173.438C209.614 169.969 203.875 161.836 203.875 152.375L203.875 129.531ZM149.656 201.812C162.271 201.813 172.5 212.042 172.5 224.656C172.5 237.271 162.271 247.5 149.656 247.5C148.074 247.5 146.526 247.337 145.031 247.031C143.552 246.733 142.143 246.294 140.781 245.719C140.773 245.715 140.759 245.722 140.75 245.719C140.658 245.68 140.591 245.602 140.5 245.562C138.772 244.805 137.191 243.799 135.719 242.656C135.701 242.642 135.674 242.639 135.656 242.625C135.303 242.349 134.992 242.046 134.656 241.75C133.188 240.457 131.815 239.065 130.719 237.438C129.636 235.831 128.838 234.017 128.188 232.156C127.935 231.435 127.68 230.721 127.5 229.969C127.492 229.937 127.476 229.907 127.469 229.875C127.417 229.656 127.361 229.438 127.312 229.219C127.291 229.114 127.27 229.011 127.25 228.906C126.988 227.52 126.813 226.118 126.812 224.656C126.812 212.042 137.042 201.812 149.656 201.812ZM226.719 201.812C239.333 201.813 249.531 212.042 249.531 224.656C249.531 226.463 249.268 228.216 248.875 229.906C248.873 229.916 248.877 229.928 248.875 229.938C248.765 230.4 248.606 230.83 248.469 231.281C248.462 231.303 248.444 231.322 248.438 231.344C248.211 232.088 248.05 232.854 247.75 233.562C247.563 234.004 247.276 234.387 247.062 234.812C246.843 235.251 246.621 235.672 246.375 236.094C246.352 236.134 246.336 236.178 246.312 236.219C245.668 237.306 244.935 238.319 244.125 239.281C244.082 239.332 244.043 239.387 244 239.438C243.773 239.703 243.551 239.964 243.312 240.219C243.307 240.225 243.318 240.244 243.312 240.25C243.145 240.428 243.017 240.639 242.844 240.812C241.812 241.846 240.681 242.773 239.469 243.594C239.077 243.859 238.627 244.04 238.219 244.281C237.993 244.414 237.825 244.625 237.594 244.75C237.162 244.984 236.698 245.168 236.25 245.375C236.025 245.479 235.822 245.622 235.594 245.719C235.464 245.774 235.318 245.791 235.188 245.844C233.942 246.343 232.656 246.756 231.312 247.031C231.251 247.044 231.186 247.05 231.125 247.062C229.702 247.349 228.231 247.5 226.719 247.5C225.226 247.5 223.788 247.336 222.375 247.062C222.345 247.057 222.311 247.068 222.281 247.062C222.23 247.052 222.176 247.042 222.125 247.031C222.115 247.029 222.104 247.034 222.094 247.031C221.802 246.971 221.53 246.869 221.25 246.781C221.196 246.768 221.148 246.733 221.094 246.719C220.205 246.492 219.313 246.266 218.469 245.938C218.438 245.926 218.405 245.918 218.375 245.906C218.192 245.835 217.994 245.795 217.812 245.719C217.406 245.547 217.05 245.289 216.656 245.094C216.614 245.073 216.573 245.052 216.531 245.031C215.879 244.705 215.24 244.354 214.625 243.969C214.128 243.655 213.658 243.318 213.188 242.969C212.569 242.511 211.975 242.048 211.406 241.531C211.384 241.511 211.366 241.489 211.344 241.469C211.092 241.238 210.803 241.054 210.562 240.812C210.4 240.65 210.271 240.459 210.125 240.281C210.1 240.254 210.088 240.215 210.062 240.188C209.578 239.668 209.122 239.126 208.688 238.562C208.647 238.51 208.603 238.46 208.562 238.406C208.195 237.924 207.829 237.449 207.5 236.938C207.492 236.926 207.476 236.918 207.469 236.906C207.049 236.249 206.727 235.545 206.375 234.844C206.331 234.756 206.268 234.679 206.219 234.594C206.021 234.256 205.81 233.926 205.656 233.562C205.614 233.463 205.603 233.35 205.562 233.25C205.047 231.981 204.626 230.651 204.344 229.281C204.342 229.271 204.346 229.26 204.344 229.25C204.039 227.763 203.875 226.233 203.875 224.656C203.875 212.042 214.104 201.812 226.719 201.812Z" fill="#ffffff" fill-rule="nonzero" opacity="1" stroke="none"/>
<path d="M187.531 79.625C175.843 79.625 165.773 88.554 155.25 91.875C144.338 95.2823 130.694 93.8669 121.594 100.25C112.407 106.676 109.654 119.565 102.969 128.406C96.3268 137.162 84.3923 143.633 80.8125 154.156C77.4053 164.292 82.9688 176.243 82.9688 187.5C82.9688 198.757 77.3621 210.708 80.8125 220.844C84.3491 231.367 96.3387 237.838 102.938 246.594C109.623 255.435 112.376 268.324 121.562 274.75C130.663 281.133 144.233 279.718 155.188 283.125C165.754 286.403 175.812 295.375 187.5 295.375C190.422 295.375 193.245 294.826 196 293.938C198.755 293.049 201.443 291.824 204.094 290.5C206.745 289.176 209.359 287.742 211.969 286.438C214.578 285.133 217.182 283.955 219.812 283.125C230.724 279.718 244.337 281.133 253.438 274.75C262.624 268.324 265.377 255.435 272.062 246.594C278.704 237.838 290.651 231.367 294.188 220.844C297.638 210.665 292.031 198.714 292.031 187.5C292.031 181.872 293.436 176.068 294.406 170.406C295.377 164.744 295.913 159.224 294.188 154.156C290.651 143.633 278.661 137.161 272.062 128.406C270.391 126.196 268.967 123.74 267.625 121.188C266.017 118.128 264.459 115.001 262.812 111.969C262.79 111.927 262.773 111.885 262.75 111.844C261.996 110.464 261.192 109.13 260.344 107.844C260.29 107.761 260.242 107.676 260.188 107.594C259.654 106.795 259.119 105.994 258.531 105.25C258.192 104.821 257.83 104.407 257.469 104C256.25 102.623 254.964 101.318 253.438 100.25C252.3 99.4575 251.107 98.7935 249.844 98.2188C248.025 97.3912 246.042 96.8764 244.031 96.375C242.422 95.9723 240.778 95.6212 239.094 95.3438C237.95 95.1553 236.814 94.9236 235.656 94.75C235.551 94.7356 235.449 94.7018 235.344 94.6875C235.261 94.6762 235.177 94.6675 235.094 94.6562C232.713 94.3338 230.329 94.0274 227.969 93.6562C225.174 93.2161 222.432 92.6934 219.844 91.875C217.202 91.0555 214.581 89.8648 211.969 88.5625C208.93 87.0473 205.844 85.4632 202.75 83.9688C201.367 83.3002 199.97 82.7144 198.562 82.1562C198.299 82.0514 198.046 81.9122 197.781 81.8125C197.772 81.809 197.759 81.816 197.75 81.8125C197.301 81.6436 196.854 81.4824 196.406 81.3125C195.877 81.116 195.35 80.9061 194.812 80.75C194.771 80.7382 194.729 80.7304 194.688 80.7188C194.212 80.5851 193.73 80.4859 193.25 80.375C193.24 80.3727 193.229 80.3773 193.219 80.375C191.355 79.9459 189.477 79.625 187.531 79.625ZM149.656 129.531C162.271 129.531 172.5 139.76 172.5 152.375C172.5 153.9 172.348 155.371 172.062 156.812C171.997 157.145 171.861 157.454 171.781 157.781C171.535 158.785 171.249 159.772 170.875 160.719C170.643 161.309 170.373 161.872 170.094 162.438C169.75 163.134 169.379 163.815 168.969 164.469C168.656 164.967 168.318 165.435 167.969 165.906C167.495 166.545 167.005 167.164 166.469 167.75C166.058 168.199 165.633 168.616 165.188 169.031C164.6 169.579 163.986 170.078 163.344 170.562C162.877 170.914 162.431 171.278 161.938 171.594C161.317 171.991 160.66 172.319 160 172.656C159.39 172.968 158.797 173.305 158.156 173.562C158.113 173.58 158.075 173.608 158.031 173.625C156.821 174.102 155.551 174.484 154.25 174.75C152.763 175.054 151.233 175.219 149.656 175.219C137.042 175.219 126.812 164.99 126.812 152.375C126.812 139.76 137.042 129.531 149.656 129.531ZM226.719 129.531C239.333 129.531 249.531 139.76 249.531 152.375C249.531 164.99 239.333 175.219 226.719 175.219C223.565 175.219 220.545 174.594 217.812 173.438C209.614 169.969 203.875 161.836 203.875 152.375C203.875 141.337 211.716 132.13 222.125 130C223.612 129.696 225.142 129.531 226.719 129.531ZM149.656 201.812C162.271 201.813 172.5 212.042 172.5 224.656C172.5 237.271 162.271 247.5 149.656 247.5C148.074 247.5 146.526 247.337 145.031 247.031C143.552 246.733 142.143 246.294 140.781 245.719C140.773 245.715 140.759 245.722 140.75 245.719C140.658 245.68 140.591 245.602 140.5 245.562C138.772 244.805 137.191 243.799 135.719 242.656C135.701 242.642 135.674 242.639 135.656 242.625C135.303 242.349 134.992 242.046 134.656 241.75C133.188 240.457 131.815 239.065 130.719 237.438C129.636 235.831 128.838 234.017 128.188 232.156C127.935 231.435 127.68 230.721 127.5 229.969C127.492 229.937 127.476 229.907 127.469 229.875C127.417 229.656 127.361 229.438 127.312 229.219C127.291 229.114 127.27 229.011 127.25 228.906C126.988 227.52 126.813 226.118 126.812 224.656C126.812 212.042 137.042 201.812 149.656 201.812ZM226.719 201.812C239.333 201.813 249.531 212.042 249.531 224.656C249.531 226.463 249.268 228.216 248.875 229.906C248.873 229.916 248.877 229.928 248.875 229.938C248.765 230.4 248.606 230.83 248.469 231.281C248.462 231.303 248.444 231.322 248.438 231.344C248.211 232.088 248.05 232.854 247.75 233.562C247.563 234.004 247.276 234.387 247.062 234.812C246.843 235.251 246.621 235.672 246.375 236.094C246.352 236.134 246.336 236.178 246.312 236.219C245.668 237.306 244.935 238.319 244.125 239.281C244.082 239.332 244.043 239.387 244 239.438C243.773 239.703 243.551 239.964 243.312 240.219C243.307 240.225 243.318 240.244 243.312 240.25C243.145 240.428 243.017 240.639 242.844 240.812C241.812 241.846 240.681 242.773 239.469 243.594C239.077 243.859 238.627 244.04 238.219 244.281C237.993 244.414 237.825 244.625 237.594 244.75C237.162 244.984 236.698 245.168 236.25 245.375C236.025 245.479 235.822 245.622 235.594 245.719C235.464 245.774 235.318 245.791 235.188 245.844C233.942 246.343 232.656 246.756 231.312 247.031C231.251 247.044 231.186 247.05 231.125 247.062C229.702 247.349 228.231 247.5 226.719 247.5C225.226 247.5 223.788 247.336 222.375 247.062C222.345 247.057 222.311 247.068 222.281 247.062C222.23 247.052 222.176 247.042 222.125 247.031C222.115 247.029 222.104 247.034 222.094 247.031C221.802 246.971 221.53 246.869 221.25 246.781C221.196 246.768 221.148 246.733 221.094 246.719C220.205 246.492 219.313 246.266 218.469 245.938C218.438 245.926 218.405 245.918 218.375 245.906C218.192 245.835 217.994 245.795 217.812 245.719C217.406 245.547 217.05 245.289 216.656 245.094C216.614 245.073 216.573 245.052 216.531 245.031C215.879 244.705 215.24 244.354 214.625 243.969C214.128 243.655 213.658 243.318 213.188 242.969C212.569 242.511 211.975 242.048 211.406 241.531C211.384 241.511 211.366 241.489 211.344 241.469C211.092 241.238 210.803 241.054 210.562 240.812C210.4 240.65 210.271 240.459 210.125 240.281C210.1 240.254 210.088 240.215 210.062 240.188C209.578 239.668 209.122 239.126 208.688 238.562C208.647 238.51 208.603 238.46 208.562 238.406C208.195 237.924 207.829 237.449 207.5 236.938C207.492 236.926 207.476 236.918 207.469 236.906C207.049 236.249 206.727 235.545 206.375 234.844C206.331 234.756 206.268 234.679 206.219 234.594C206.021 234.256 205.81 233.926 205.656 233.562C205.614 233.463 205.603 233.35 205.562 233.25C205.047 231.981 204.626 230.651 204.344 229.281C204.342 229.271 204.346 229.26 204.344 229.25C204.039 227.763 203.875 226.233 203.875 224.656C203.875 212.042 214.104 201.812 226.719 201.812Z" fill="#ffffff" fill-rule="nonzero" opacity="1" stroke="none"/>
<path d="M187.531 79.625C175.843 79.625 165.773 88.554 155.25 91.875C144.338 95.2823 130.694 93.8669 121.594 100.25C112.407 106.676 109.654 119.565 102.969 128.406C96.3268 137.162 84.3923 143.633 80.8125 154.156C77.4053 164.292 82.9688 176.243 82.9688 187.5C82.9688 198.757 77.3621 210.708 80.8125 220.844C84.3491 231.367 96.3387 237.838 102.938 246.594C109.623 255.435 112.376 268.324 121.562 274.75C130.663 281.133 144.233 279.718 155.188 283.125C165.754 286.403 175.812 295.375 187.5 295.375C190.422 295.375 193.245 294.826 196 293.938C198.755 293.049 201.443 291.824 204.094 290.5C206.745 289.176 209.359 287.742 211.969 286.438C214.578 285.133 217.182 283.955 219.812 283.125C230.724 279.718 244.337 281.133 253.438 274.75C262.624 268.324 265.377 255.435 272.062 246.594C278.704 237.838 290.651 231.367 294.188 220.844C297.638 210.665 292.031 198.714 292.031 187.5C292.031 181.872 293.436 176.068 294.406 170.406C295.377 164.744 295.913 159.224 294.188 154.156C290.651 143.633 278.661 137.161 272.062 128.406C270.391 126.196 268.967 123.74 267.625 121.188C266.017 118.128 264.459 115.001 262.812 111.969C262.79 111.927 262.773 111.885 262.75 111.844C261.996 110.464 261.192 109.13 260.344 107.844C260.29 107.761 260.242 107.676 260.188 107.594C259.654 106.795 259.119 105.994 258.531 105.25C258.192 104.821 257.83 104.407 257.469 104C256.25 102.623 254.964 101.318 253.438 100.25C252.3 99.4575 251.107 98.7935 249.844 98.2188C248.025 97.3912 246.042 96.8764 244.031 96.375C242.422 95.9723 240.778 95.6212 239.094 95.3438C237.95 95.1553 236.814 94.9236 235.656 94.75C235.551 94.7356 235.449 94.7018 235.344 94.6875C235.261 94.6762 235.177 94.6675 235.094 94.6562C232.713 94.3338 230.329 94.0274 227.969 93.6562C225.174 93.2161 222.432 92.6934 219.844 91.875C217.202 91.0555 214.581 89.8648 211.969 88.5625C208.93 87.0473 205.844 85.4632 202.75 83.9688C201.367 83.3002 199.97 82.7144 198.562 82.1562C198.299 82.0514 198.046 81.9122 197.781 81.8125C197.772 81.809 197.759 81.816 197.75 81.8125C197.301 81.6436 196.854 81.4824 196.406 81.3125C195.877 81.116 195.35 80.9061 194.812 80.75C194.771 80.7382 194.729 80.7304 194.688 80.7188C194.212 80.5851 193.73 80.4859 193.25 80.375C193.24 80.3727 193.229 80.3773 193.219 80.375C191.355 79.9459 189.477 79.625 187.531 79.625ZM149.656 129.531C162.271 129.531 172.5 139.76 172.5 152.375C172.5 153.9 172.348 155.371 172.062 156.812C171.997 157.145 171.861 157.454 171.781 157.781C171.535 158.785 171.249 159.772 170.875 160.719C170.643 161.309 170.373 161.872 170.094 162.438C169.75 163.134 169.379 163.815 168.969 164.469C168.656 164.967 168.318 165.435 167.969 165.906C167.495 166.545 167.005 167.164 166.469 167.75C166.058 168.199 165.633 168.616 165.188 169.031C164.6 169.579 163.986 170.078 163.344 170.562C162.877 170.914 162.431 171.278 161.938 171.594C161.317 171.991 160.66 172.319 160 172.656C159.39 172.968 158.797 173.305 158.156 173.562C158.113 173.58 158.075 173.608 158.031 173.625C156.821 174.102 155.551 174.484 154.25 174.75C152.763 175.054 151.233 175.219 149.656 175.219C137.042 175.219 126.812 164.99 126.812 152.375C126.812 139.76 137.042 129.531 149.656 129.531ZM226.719 129.531C239.333 129.531 249.531 139.76 249.531 152.375C249.531 164.99 239.333 175.219 226.719 175.219C223.565 175.219 220.545 174.594 217.812 173.438C209.614 169.969 203.875 161.836 203.875 152.375C203.875 141.337 211.716 132.13 222.125 130C223.612 129.696 225.142 129.531 226.719 129.531ZM149.656 201.812C162.271 201.813 172.5 212.042 172.5 224.656C172.5 237.271 162.271 247.5 149.656 247.5C148.074 247.5 146.526 247.337 145.031 247.031C143.552 246.733 142.143 246.294 140.781 245.719C140.773 245.715 140.759 245.722 140.75 245.719C140.658 245.68 140.591 245.602 140.5 245.562C138.772 244.805 137.191 243.799 135.719 242.656C135.701 242.642 135.674 242.639 135.656 242.625C135.303 242.349 134.992 242.046 134.656 241.75C133.188 240.457 131.815 239.065 130.719 237.438C129.636 235.831 128.838 234.017 128.188 232.156C127.935 231.435 127.68 230.721 127.5 229.969C127.492 229.937 127.476 229.907 127.469 229.875C127.417 229.656 127.361 229.438 127.312 229.219C127.291 229.114 127.27 229.011 127.25 228.906C126.988 227.52 126.812 226.118 126.812 224.656C126.812 212.042 137.042 201.812 149.656 201.812ZM226.719 201.812C239.333 201.813 249.531 212.042 249.531 224.656C249.531 226.463 249.268 228.216 248.875 229.906C248.873 229.916 248.877 229.928 248.875 229.938C248.765 230.4 248.606 230.83 248.469 231.281C248.462 231.303 248.444 231.322 248.438 231.344C248.211 232.088 248.05 232.854 247.75 233.562C247.563 234.004 247.276 234.387 247.062 234.812C246.843 235.251 246.621 235.672 246.375 236.094C246.352 236.134 246.336 236.178 246.312 236.219C245.668 237.306 244.935 238.319 244.125 239.281C244.082 239.332 244.043 239.387 244 239.438C243.773 239.703 243.551 239.964 243.312 240.219C243.307 240.225 243.318 240.244 243.312 240.25C243.145 240.428 243.017 240.639 242.844 240.812C241.812 241.846 240.681 242.773 239.469 243.594C239.077 243.859 238.627 244.04 238.219 244.281C237.993 244.414 237.825 244.625 237.594 244.75C237.162 244.984 236.698 245.168 236.25 245.375C236.025 245.479 235.822 245.622 235.594 245.719C235.464 245.774 235.318 245.791 235.188 245.844C233.942 246.343 232.656 246.756 231.312 247.031C231.251 247.044 231.186 247.05 231.125 247.062C229.702 247.349 228.231 247.5 226.719 247.5C225.226 247.5 223.788 247.336 222.375 247.062C222.345 247.057 222.311 247.068 222.281 247.062C222.23 247.052 222.176 247.042 222.125 247.031C222.115 247.029 222.104 247.034 222.094 247.031C221.802 246.971 221.53 246.869 221.25 246.781C221.196 246.768 221.148 246.733 221.094 246.719C220.205 246.492 219.313 246.266 218.469 245.938C218.438 245.926 218.405 245.918 218.375 245.906C218.192 245.835 217.994 245.795 217.812 245.719C217.406 245.547 217.05 245.289 216.656 245.094C216.614 245.073 216.573 245.052 216.531 245.031C215.879 244.705 215.24 244.354 214.625 243.969C214.128 243.655 213.658 243.318 213.188 242.969C212.569 242.511 211.975 242.048 211.406 241.531C211.384 241.511 211.366 241.489 211.344 241.469C211.092 241.238 210.803 241.054 210.562 240.812C210.4 240.65 210.271 240.459 210.125 240.281C210.1 240.254 210.088 240.215 210.062 240.188C209.578 239.668 209.122 239.126 208.688 238.562C208.647 238.51 208.603 238.46 208.562 238.406C208.195 237.924 207.829 237.449 207.5 236.938C207.492 236.926 207.476 236.918 207.469 236.906C207.049 236.249 206.727 235.545 206.375 234.844C206.331 234.756 206.268 234.679 206.219 234.594C206.021 234.256 205.81 233.926 205.656 233.562C205.614 233.463 205.603 233.35 205.562 233.25C205.047 231.981 204.626 230.651 204.344 229.281C204.342 229.271 204.346 229.26 204.344 229.25C204.039 227.763 203.875 226.233 203.875 224.656C203.875 212.042 214.104 201.812 226.719 201.812Z" fill="#ffffff" fill-rule="nonzero" opacity="1" stroke="none"/>
<path d="M187.531 79.625C175.843 79.625 165.773 88.554 155.25 91.875C144.338 95.2823 130.694 93.8669 121.594 100.25C112.407 106.676 109.654 119.565 102.969 128.406C96.3268 137.162 84.3923 143.633 80.8125 154.156C77.4053 164.292 82.9688 176.243 82.9688 187.5C82.9688 198.757 77.3621 210.708 80.8125 220.844C84.3491 231.367 96.3387 237.838 102.938 246.594C109.623 255.435 112.376 268.324 121.562 274.75C130.663 281.133 144.233 279.718 155.188 283.125C165.754 286.403 175.812 295.375 187.5 295.375C190.422 295.375 193.245 294.826 196 293.938C198.755 293.049 201.443 291.824 204.094 290.5C206.745 289.176 209.359 287.742 211.969 286.438C214.578 285.133 217.182 283.955 219.812 283.125C230.724 279.718 244.337 281.133 253.438 274.75C262.624 268.324 265.377 255.435 272.062 246.594C278.704 237.838 290.651 231.367 294.188 220.844C297.638 210.665 292.031 198.714 292.031 187.5C292.031 181.872 293.436 176.068 294.406 170.406C295.377 164.744 295.913 159.224 294.188 154.156C290.651 143.633 278.661 137.161 272.062 128.406C270.391 126.196 268.967 123.74 267.625 121.188C266.017 118.128 264.459 115.001 262.812 111.969C262.79 111.927 262.773 111.885 262.75 111.844C261.996 110.464 261.192 109.13 260.344 107.844C260.29 107.761 260.242 107.676 260.188 107.594C259.654 106.795 259.119 105.994 258.531 105.25C258.192 104.821 257.83 104.407 257.469 104C256.25 102.623 254.964 101.318 253.438 100.25C252.3 99.4575 251.107 98.7935 249.844 98.2188C248.025 97.3912 246.042 96.8764 244.031 96.375C242.422 95.9723 240.778 95.6212 239.094 95.3438C237.95 95.1553 236.814 94.9236 235.656 94.75C235.551 94.7356 235.449 94.7018 235.344 94.6875C235.261 94.6762 235.177 94.6675 235.094 94.6562C232.713 94.3338 230.329 94.0274 227.969 93.6562C225.174 93.2161 222.432 92.6934 219.844 91.875C217.202 91.0555 214.581 89.8648 211.969 88.5625C208.93 87.0473 205.844 85.4632 202.75 83.9688C201.367 83.3002 199.97 82.7144 198.562 82.1562C198.299 82.0514 198.046 81.9122 197.781 81.8125C197.772 81.809 197.759 81.816 197.75 81.8125C197.301 81.6436 196.854 81.4824 196.406 81.3125C195.877 81.116 195.35 80.9061 194.812 80.75C194.771 80.7382 194.729 80.7304 194.688 80.7188C194.212 80.5851 193.73 80.4859 193.25 80.375C193.24 80.3727 193.229 80.3773 193.219 80.375C191.355 79.9459 189.477 79.625 187.531 79.625ZM149.656 129.531C162.271 129.531 172.5 139.76 172.5 152.375C172.5 153.9 172.348 155.371 172.062 156.812C171.997 157.145 171.861 157.454 171.781 157.781C171.535 158.785 171.249 159.772 170.875 160.719C170.643 161.309 170.373 161.872 170.094 162.438C169.75 163.134 169.379 163.815 168.969 164.469C168.656 164.967 168.318 165.435 167.969 165.906C167.495 166.545 167.005 167.164 166.469 167.75C166.058 168.199 165.633 168.616 165.188 169.031C164.6 169.579 163.986 170.078 163.344 170.562C162.877 170.914 162.431 171.278 161.938 171.594C161.317 171.991 160.66 172.319 160 172.656C159.39 172.968 158.797 173.305 158.156 173.562C158.113 173.58 158.075 173.608 158.031 173.625C156.821 174.102 155.551 174.484 154.25 174.75C152.763 175.054 151.233 175.219 149.656 175.219C137.042 175.219 126.812 164.99 126.812 152.375C126.812 139.76 137.042 129.531 149.656 129.531ZM226.719 129.531C239.333 129.531 249.531 139.76 249.531 152.375C249.531 164.99 239.333 175.219 226.719 175.219C223.565 175.219 220.545 174.594 217.812 173.438C209.614 169.969 203.875 161.836 203.875 152.375C203.875 141.337 211.716 132.13 222.125 130C223.612 129.696 225.142 129.531 226.719 129.531ZM149.656 201.812C162.271 201.813 172.5 212.042 172.5 224.656C172.5 237.271 162.271 247.5 149.656 247.5C148.074 247.5 146.526 247.337 145.031 247.031C143.552 246.733 142.143 246.294 140.781 245.719C140.773 245.715 140.759 245.722 140.75 245.719C140.658 245.68 140.591 245.602 140.5 245.562C138.772 244.805 137.191 243.799 135.719 242.656C135.701 242.642 135.674 242.639 135.656 242.625C135.303 242.349 134.992 242.046 134.656 241.75C133.188 240.457 131.815 239.065 130.719 237.438C129.636 235.831 128.838 234.017 128.188 232.156C127.935 231.435 127.68 230.721 127.5 229.969C127.492 229.937 127.476 229.907 127.469 229.875C127.417 229.656 127.361 229.438 127.312 229.219C127.291 229.114 127.27 229.011 127.25 228.906C126.988 227.52 126.813 226.118 126.812 224.656C126.812 212.042 137.042 201.812 149.656 201.812ZM226.719 201.812C239.333 201.813 249.531 212.042 249.531 224.656C249.531 226.463 249.268 228.216 248.875 229.906C248.873 229.916 248.877 229.928 248.875 229.938C248.765 230.4 248.606 230.83 248.469 231.281C248.462 231.303 248.444 231.322 248.438 231.344C248.211 232.088 248.05 232.854 247.75 233.562C247.563 234.004 247.276 234.387 247.062 234.812C246.843 235.251 246.621 235.672 246.375 236.094C246.352 236.134 246.336 236.178 246.312 236.219C245.668 237.306 244.935 238.319 244.125 239.281C244.082 239.332 244.043 239.387 244 239.438C243.773 239.703 243.551 239.964 243.312 240.219C243.307 240.225 243.318 240.244 243.312 240.25C243.145 240.428 243.017 240.639 242.844 240.812C241.812 241.846 240.681 242.773 239.469 243.594C239.077 243.859 238.627 244.04 238.219 244.281C237.993 244.414 237.825 244.625 237.594 244.75C237.162 244.984 236.698 245.168 236.25 245.375C236.025 245.479 235.822 245.622 235.594 245.719C235.464 245.774 235.318 245.791 235.188 245.844C233.942 246.343 232.656 246.756 231.312 247.031C231.251 247.044 231.186 247.05 231.125 247.062C229.702 247.349 228.231 247.5 226.719 247.5C225.226 247.5 223.788 247.336 222.375 247.062C222.345 247.057 222.311 247.068 222.281 247.062C222.23 247.052 222.176 247.042 222.125 247.031C222.115 247.029 222.104 247.034 222.094 247.031C221.802 246.971 221.53 246.869 221.25 246.781C221.196 246.768 221.148 246.733 221.094 246.719C220.205 246.492 219.313 246.266 218.469 245.938C218.438 245.926 218.405 245.918 218.375 245.906C218.192 245.835 217.994 245.795 217.812 245.719C217.406 245.547 217.05 245.289 216.656 245.094C216.614 245.073 216.573 245.052 216.531 245.031C215.879 244.705 215.24 244.354 214.625 243.969C214.128 243.655 213.658 243.318 213.188 242.969C212.569 242.511 211.975 242.048 211.406 241.531C211.384 241.511 211.366 241.489 211.344 241.469C211.092 241.238 210.803 241.054 210.562 240.812C210.4 240.65 210.271 240.459 210.125 240.281C210.1 240.254 210.088 240.215 210.062 240.188C209.578 239.668 209.122 239.126 208.688 238.562C208.647 238.51 208.603 238.46 208.562 238.406C208.195 237.924 207.829 237.449 207.5 236.938C207.492 236.926 207.476 236.918 207.469 236.906C207.049 236.249 206.727 235.545 206.375 234.844C206.331 234.756 206.268 234.679 206.219 234.594C206.021 234.256 205.81 233.926 205.656 233.562C205.614 233.463 205.603 233.35 205.562 233.25C205.047 231.981 204.626 230.651 204.344 229.281C204.342 229.271 204.346 229.26 204.344 229.25C204.039 227.763 203.875 226.233 203.875 224.656C203.875 212.042 214.104 201.812 226.719 201.812Z" fill="#ffffff" fill-rule="nonzero" opacity="1" stroke="none"/>
<path d="M187.531 79.625C175.843 79.625 165.773 88.554 155.25 91.875C144.338 95.2823 130.694 93.8669 121.594 100.25C112.407 106.676 109.654 119.565 102.969 128.406C96.3268 137.162 84.3923 143.633 80.8125 154.156C77.4053 164.292 82.9688 176.243 82.9688 187.5C82.9688 198.757 77.3621 210.708 80.8125 220.844C84.3491 231.367 96.3387 237.838 102.938 246.594C109.623 255.435 112.376 268.324 121.562 274.75C130.663 281.133 144.233 279.718 155.188 283.125C165.754 286.403 175.812 295.375 187.5 295.375C190.422 295.375 193.245 294.826 196 293.938C198.755 293.049 201.443 291.824 204.094 290.5C206.745 289.176 209.359 287.742 211.969 286.438C214.578 285.133 217.182 283.955 219.812 283.125C230.724 279.718 244.337 281.133 253.438 274.75C262.624 268.324 265.377 255.435 272.062 246.594C278.704 237.838 290.651 231.367 294.188 220.844C297.638 210.665 292.031 198.714 292.031 187.5C292.031 181.872 293.436 176.068 294.406 170.406C295.377 164.744 295.913 159.224 294.188 154.156C290.651 143.633 278.661 137.161 272.062 128.406C270.391 126.196 268.967 123.74 267.625 121.188C266.017 118.128 264.459 115.001 262.812 111.969C262.79 111.927 262.773 111.885 262.75 111.844C261.996 110.464 261.192 109.13 260.344 107.844C260.29 107.761 260.242 107.676 260.188 107.594C259.654 106.795 259.119 105.994 258.531 105.25C258.192 104.821 257.83 104.407 257.469 104C256.25 102.623 254.964 101.318 253.438 100.25C252.3 99.4575 251.107 98.7935 249.844 98.2188C248.025 97.3912 246.042 96.8764 244.031 96.375C242.422 95.9723 240.778 95.6212 239.094 95.3438C237.95 95.1553 236.814 94.9236 235.656 94.75C235.551 94.7356 235.449 94.7018 235.344 94.6875C235.261 94.6762 235.177 94.6675 235.094 94.6562C232.713 94.3338 230.329 94.0274 227.969 93.6562C225.174 93.2161 222.432 92.6934 219.844 91.875C217.202 91.0555 214.581 89.8648 211.969 88.5625C208.93 87.0473 205.844 85.4632 202.75 83.9688C201.367 83.3002 199.97 82.7144 198.562 82.1562C198.299 82.0514 198.046 81.9122 197.781 81.8125C197.772 81.809 197.759 81.816 197.75 81.8125C197.301 81.6436 196.854 81.4824 196.406 81.3125C195.877 81.116 195.35 80.9061 194.812 80.75C194.771 80.7382 194.729 80.7304 194.688 80.7188C194.212 80.5851 193.73 80.4859 193.25 80.375C193.24 80.3727 193.229 80.3773 193.219 80.375C191.355 79.9459 189.477 79.625 187.531 79.625ZM149.656 129.531C162.271 129.531 172.5 139.76 172.5 152.375C172.5 153.9 172.348 155.371 172.062 156.812C171.997 157.145 171.861 157.454 171.781 157.781C171.535 158.785 171.249 159.772 170.875 160.719C170.643 161.309 170.373 161.872 170.094 162.438C169.75 163.134 169.379 163.815 168.969 164.469C168.656 164.967 168.318 165.435 167.969 165.906C167.495 166.545 167.005 167.164 166.469 167.75C166.058 168.199 165.633 168.616 165.188 169.031C164.6 169.579 163.986 170.078 163.344 170.562C162.877 170.914 162.431 171.278 161.938 171.594C161.317 171.991 160.66 172.319 160 172.656C159.39 172.968 158.797 173.305 158.156 173.562C158.113 173.58 158.075 173.608 158.031 173.625C156.821 174.102 155.551 174.484 154.25 174.75C152.763 175.054 151.233 175.219 149.656 175.219C137.042 175.219 126.812 164.99 126.812 152.375C126.812 139.76 137.042 129.531 149.656 129.531ZM226.719 129.531C239.333 129.531 249.531 139.76 249.531 152.375C249.531 164.99 239.333 175.219 226.719 175.219C223.565 175.219 220.545 174.594 217.812 173.438C209.614 169.969 203.875 161.836 203.875 152.375C203.875 141.337 211.716 132.13 222.125 130C223.612 129.696 225.142 129.531 226.719 129.531ZM149.656 201.812C162.271 201.813 172.5 212.042 172.5 224.656C172.5 237.271 162.271 247.5 149.656 247.5C148.074 247.5 146.526 247.337 145.031 247.031C143.552 246.733 142.143 246.294 140.781 245.719C140.773 245.715 140.759 245.722 140.75 245.719C140.658 245.68 140.591 245.602 140.5 245.562C138.772 244.805 137.191 243.799 135.719 242.656C135.701 242.642 135.674 242.639 135.656 242.625C135.303 242.349 134.992 242.046 134.656 241.75C133.188 240.457 131.815 239.065 130.719 237.438C129.636 235.831 128.838 234.017 128.188 232.156C127.935 231.435 127.68 230.721 127.5 229.969C127.492 229.937 127.476 229.907 127.469 229.875C127.417 229.656 127.361 229.438 127.312 229.219C127.291 229.114 127.27 229.011 127.25 228.906C126.988 227.52 126.812 226.118 126.812 224.656C126.812 212.042 137.042 201.812 149.656 201.812ZM226.719 201.812C239.333 201.813 249.531 212.042 249.531 224.656C249.531 226.463 249.268 228.216 248.875 229.906C248.873 229.916 248.877 229.928 248.875 229.938C248.765 230.4 248.606 230.83 248.469 231.281C248.462 231.303 248.444 231.322 248.438 231.344C248.211 232.088 248.05 232.854 247.75 233.562C247.563 234.004 247.276 234.387 247.062 234.812C246.843 235.251 246.621 235.672 246.375 236.094C246.352 236.134 246.336 236.178 246.312 236.219C245.668 237.306 244.935 238.319 244.125 239.281C244.082 239.332 244.043 239.387 244 239.438C243.773 239.703 243.551 239.964 243.312 240.219C243.307 240.225 243.318 240.244 243.312 240.25C243.145 240.428 243.017 240.639 242.844 240.812C241.812 241.846 240.681 242.773 239.469 243.594C239.077 243.859 238.627 244.04 238.219 244.281C237.993 244.414 237.825 244.625 237.594 244.75C237.162 244.984 236.698 245.168 236.25 245.375C236.025 245.479 235.822 245.622 235.594 245.719C235.464 245.774 235.318 245.791 235.188 245.844C233.942 246.343 232.656 246.756 231.312 247.031C231.251 247.044 231.186 247.05 231.125 247.062C229.702 247.349 228.231 247.5 226.719 247.5C225.226 247.5 223.788 247.336 222.375 247.062C222.345 247.057 222.311 247.068 222.281 247.062C222.23 247.052 222.176 247.042 222.125 247.031C222.115 247.029 222.104 247.034 222.094 247.031C221.802 246.971 221.53 246.869 221.25 246.781C221.196 246.768 221.148 246.733 221.094 246.719C220.205 246.492 219.313 246.266 218.469 245.938C218.438 245.926 218.405 245.918 218.375 245.906C218.192 245.835 217.994 245.795 217.812 245.719C217.406 245.547 217.05 245.289 216.656 245.094C216.614 245.073 216.573 245.052 216.531 245.031C215.879 244.705 215.24 244.354 214.625 243.969C214.128 243.655 213.658 243.318 213.188 242.969C212.569 242.511 211.975 242.048 211.406 241.531C211.384 241.511 211.366 241.489 211.344 241.469C211.092 241.238 210.803 241.054 210.562 240.812C210.4 240.65 210.271 240.459 210.125 240.281C210.1 240.254 210.088 240.215 210.062 240.188C209.578 239.668 209.122 239.126 208.688 238.562C208.647 238.51 208.603 238.46 208.562 238.406C208.195 237.924 207.829 237.449 207.5 236.938C207.492 236.926 207.476 236.918 207.469 236.906C207.049 236.249 206.727 235.545 206.375 234.844C206.331 234.756 206.268 234.679 206.219 234.594C206.021 234.256 205.81 233.926 205.656 233.562C205.614 233.463 205.603 233.35 205.562 233.25C205.047 231.981 204.626 230.651 204.344 229.281C204.342 229.271 204.346 229.26 204.344 229.25C204.039 227.763 203.875 226.233 203.875 224.656C203.875 212.042 214.104 201.812 226.719 201.812Z" fill="#ffffff" fill-rule="nonzero" opacity="1" stroke="none"/>
</g>
<g opacity="1" vectornator:layerName="path">
<clipPath clip-rule="nonzero" id="ClipPath">
<path d="M226.705 201.818C214.09 201.818 203.864 212.044 203.864 224.659C203.864 237.274 214.09 247.5 226.705 247.5C239.319 247.5 249.545 237.274 249.545 224.659C249.545 212.044 239.319 201.818 226.705 201.818"/>
</clipPath>
<g clip-path="url(#ClipPath)">
<path d="M226.719 201.812C214.104 201.812 203.875 212.042 203.875 224.656C203.875 226.233 204.039 227.763 204.344 229.25C204.346 229.26 204.342 229.271 204.344 229.281C206.486 239.675 215.691 247.5 226.719 247.5C228.296 247.5 229.826 247.336 231.312 247.031C232.656 246.756 233.942 246.343 235.188 245.844C235.318 245.791 235.464 245.774 235.594 245.719C235.823 245.622 236.025 245.479 236.25 245.375C236.698 245.168 237.162 244.984 237.594 244.75C237.825 244.625 237.993 244.414 238.219 244.281C238.627 244.04 239.077 243.859 239.469 243.594C245.536 239.488 249.531 232.54 249.531 224.656C249.531 212.042 239.333 201.813 226.719 201.812Z" fill="#004e89" fill-rule="nonzero" opacity="1" stroke="none"/>
</g>
</g>
<g opacity="1" vectornator:layerName="path">
<clipPath clip-rule="nonzero" id="ClipPath_2">
<path d="M149.659 201.818C137.044 201.818 126.818 212.044 126.818 224.659C126.818 237.274 137.044 247.5 149.659 247.5C162.274 247.5 172.5 237.274 172.5 224.659C172.5 212.044 162.274 201.818 149.659 201.818"/>
</clipPath>
<g clip-path="url(#ClipPath_2)">
<path d="M149.656 201.812C137.042 201.812 126.812 212.042 126.812 224.656C126.812 226.115 126.989 227.523 127.25 228.906C127.312 229.233 127.393 229.553 127.469 229.875C127.652 230.654 127.927 231.41 128.188 232.156C128.838 234.017 129.636 235.831 130.719 237.438C131.815 239.065 133.188 240.458 134.656 241.75C135.007 242.058 135.349 242.37 135.719 242.656C137.191 243.799 138.772 244.805 140.5 245.562C140.591 245.602 140.658 245.68 140.75 245.719C143.489 246.881 146.493 247.5 149.656 247.5C162.271 247.5 172.5 237.271 172.5 224.656C172.5 212.042 162.271 201.813 149.656 201.812Z" fill="#004e89" fill-rule="nonzero" opacity="1" stroke="none"/>
</g>
</g>
<g opacity="1" vectornator:layerName="path">
<clipPath clip-rule="nonzero" id="ClipPath_3">
<path d="M149.659 129.545C137.044 129.545 126.818 139.772 126.818 152.386C126.818 165.001 137.044 175.227 149.659 175.227C162.274 175.227 172.5 165.001 172.5 152.386C172.5 139.772 162.274 129.545 149.659 129.545"/>
</clipPath>
<g clip-path="url(#ClipPath_3)">
<path d="M149.656 129.531C148.079 129.531 146.549 129.696 145.062 130C142.089 130.609 139.305 131.796 136.875 133.438C135.66 134.258 134.533 135.217 133.5 136.25C132.473 137.279 131.535 138.385 130.719 139.594C130.714 139.6 130.723 139.618 130.719 139.625C129.077 142.055 127.89 144.807 127.281 147.781C126.977 149.268 126.812 150.798 126.812 152.375C126.812 164.99 137.042 175.219 149.656 175.219C151.233 175.219 152.763 175.054 154.25 174.75C164.659 172.62 172.5 163.413 172.5 152.375C172.5 139.76 162.271 129.531 149.656 129.531Z" fill="#004e89" fill-rule="nonzero" opacity="1" stroke="none"/>
</g>
</g>
<g opacity="1" vectornator:layerName="path">
<path d="M226.719 129.531C214.104 129.531 203.875 139.76 203.875 152.375C203.875 164.99 214.104 175.219 226.719 175.219C239.333 175.219 249.531 164.99 249.531 152.375C249.531 139.76 239.333 129.531 226.719 129.531Z" fill="#004e89" fill-rule="nonzero" opacity="1" stroke="none"/>
</g>
</g>
</g>
</svg>
