<svg xmlns="http://www.w3.org/2000/svg" viewBox="0 0 512 512" width="512" height="512">
<g transform="translate(256 256) scale(0.60) translate(-500 -500)">
<path d="M500.00 84.00 C507.20 84.00 514.57 85.41 521.60 87.78 C528.64 90.15 535.61 94.04 542.23 98.21 C548.85 102.39 555.19 107.81 561.32 112.83 C567.45 117.84 573.21 123.54 579.01 128.30 C584.80 133.07 590.29 137.82 596.08 141.43 C601.86 145.05 607.56 148.01 613.72 150.01 C619.88 152.01 626.22 152.97 633.03 153.44 C639.84 153.91 647.07 153.31 654.56 152.85 C662.05 152.40 670.06 151.18 677.96 150.73 C685.87 150.27 694.19 149.61 702.00 150.13 C709.81 150.64 717.73 151.59 724.82 153.81 C731.91 156.03 738.69 159.22 744.52 163.45 C750.34 167.68 755.47 173.15 759.77 179.21 C764.08 185.26 767.43 192.50 770.33 199.77 C773.23 207.04 775.17 215.15 777.19 222.81 C779.20 230.47 780.51 238.47 782.40 245.73 C784.28 252.99 785.93 260.06 788.49 266.39 C791.04 272.71 793.91 278.46 797.72 283.70 C801.52 288.93 806.10 293.44 811.33 297.82 C816.56 302.21 822.77 305.96 829.09 310.00 C835.41 314.04 842.61 317.76 849.27 322.04 C855.94 326.32 863.06 330.67 869.07 335.68 C875.09 340.68 880.94 346.11 885.37 352.07 C889.80 358.03 893.41 364.60 895.64 371.45 C897.86 378.30 898.80 385.74 898.72 393.16 C898.64 400.59 897.10 408.42 895.17 416.00 C893.25 423.59 890.05 431.30 887.17 438.68 C884.30 446.06 880.66 453.30 877.92 460.28 C875.17 467.26 872.36 473.95 870.71 480.57 C869.05 487.19 868.00 493.52 868.00 500.00 C868.00 506.48 869.05 512.81 870.71 519.43 C872.36 526.05 875.17 532.74 877.92 539.72 C880.66 546.70 884.30 553.94 887.17 561.32 C890.05 568.70 893.25 576.41 895.17 584.00 C897.10 591.58 898.64 599.41 898.72 606.84 C898.80 614.26 897.86 621.70 895.64 628.55 C893.41 635.40 889.80 641.97 885.37 647.93 C880.94 653.89 875.09 659.32 869.07 664.32 C863.06 669.33 855.94 673.68 849.27 677.96 C842.61 682.24 835.41 685.96 829.09 690.00 C822.77 694.04 816.56 697.79 811.33 702.18 C806.10 706.56 801.52 711.07 797.72 716.30 C793.91 721.54 791.04 727.29 788.49 733.61 C785.93 739.94 784.28 747.01 782.40 754.27 C780.51 761.53 779.20 769.53 777.19 777.19 C775.17 784.85 773.23 792.96 770.33 800.23 C767.43 807.50 764.08 814.74 759.77 820.79 C755.47 826.85 750.34 832.32 744.52 836.55 C738.69 840.78 731.91 843.97 724.82 846.19 C717.73 848.41 709.81 849.36 702.00 849.87 C694.19 850.39 685.87 849.73 677.96 849.27 C670.06 848.82 662.05 847.60 654.56 847.15 C647.07 846.69 639.84 846.09 633.03 846.56 C626.22 847.03 619.88 847.99 613.72 849.99 C607.56 851.99 601.86 854.95 596.08 858.57 C590.29 862.18 584.80 866.93 579.01 871.70 C573.21 876.46 567.45 882.16 561.32 887.17 C555.19 892.19 548.85 897.61 542.23 901.79 C535.61 905.96 528.64 909.85 521.60 912.22 C514.57 914.59 507.20 916.00 500.00 916.00 C492.80 916.00 485.43 914.59 478.40 912.22 C471.36 909.85 464.39 905.96 457.77 901.79 C451.15 897.61 444.81 892.19 438.68 887.17 C432.55 882.16 426.79 876.46 420.99 871.70 C415.20 866.93 409.71 862.18 403.92 858.57 C398.14 854.95 392.44 851.99 386.28 849.99 C380.12 847.99 373.78 847.03 366.97 846.56 C360.16 846.09 352.93 846.69 345.44 847.15 C337.95 847.60 329.94 848.82 322.04 849.27 C314.13 849.73 305.81 850.39 298.00 849.87 C290.19 849.36 282.27 848.41 275.18 846.19 C268.09 843.97 261.31 840.78 255.48 836.55 C249.66 832.32 244.53 826.85 240.23 820.79 C235.92 814.74 232.57 807.50 229.67 800.23 C226.77 792.96 224.83 784.85 222.81 777.19 C220.80 769.53 219.49 761.53 217.60 754.27 C215.72 747.01 214.07 739.94 211.51 733.61 C208.96 727.29 206.09 721.54 202.28 716.30 C198.48 711.07 193.90 706.56 188.67 702.18 C183.44 697.79 177.23 694.04 170.91 690.00 C164.59 685.96 157.39 682.24 150.73 677.96 C144.06 673.68 136.94 669.33 130.93 664.32 C124.91 659.32 119.06 653.89 114.63 647.93 C110.20 641.97 106.59 635.40 104.36 628.55 C102.14 621.70 101.20 614.26 101.28 606.84 C101.36 599.41 102.90 591.58 104.83 584.00 C106.75 576.41 109.95 568.70 112.83 561.32 C115.70 553.94 119.34 546.70 122.08 539.72 C124.83 532.74 127.64 526.05 129.29 519.43 C130.95 512.81 132.00 506.48 132.00 500.00 C132.00 493.52 130.95 487.19 129.29 480.57 C127.64 473.95 124.83 467.26 122.08 460.28 C119.34 453.30 115.70 446.06 112.83 438.68 C109.95 431.30 106.75 423.59 104.83 416.00 C102.90 408.42 101.36 400.59 101.28 393.16 C101.20 385.74 102.14 378.30 104.36 371.45 C106.59 364.60 110.20 358.03 114.63 352.07 C119.06 346.11 124.91 340.68 130.93 335.68 C136.94 330.67 144.06 326.32 150.73 322.04 C157.39 317.76 164.59 314.04 170.91 310.00 C177.23 305.96 183.44 302.21 188.67 297.82 C193.90 293.44 198.48 288.93 202.28 283.70 C206.09 278.46 208.96 272.71 211.51 266.39 C214.07 260.06 215.72 252.99 217.60 245.73 C219.49 238.47 220.80 230.47 222.81 222.81 C224.83 215.15 226.77 207.04 229.67 199.77 C232.57 192.50 235.92 185.26 240.23 179.21 C244.53 173.15 249.66 167.68 255.48 163.45 C261.31 159.22 268.09 156.03 275.18 153.81 C282.27 151.59 290.19 150.64 298.00 150.13 C305.81 149.61 314.13 150.27 322.04 150.73 C329.94 151.18 337.95 152.40 345.44 152.85 C352.93 153.31 360.16 153.91 366.97 153.44 C373.78 152.97 380.12 152.01 386.28 150.01 C392.44 148.01 398.14 145.05 403.92 141.43 C409.71 137.82 415.20 133.07 420.99 128.30 C426.79 123.54 432.55 117.84 438.68 112.83 C444.81 107.81 451.15 102.39 457.77 98.21 C464.39 94.04 471.36 90.15 478.40 87.78 C485.43 85.41 492.80 84.00 500.00 84.00 Z M500.00 202.00 C505.14 202.00 510.45 203.36 515.43 205.62 C520.41 207.88 525.32 211.61 529.90 215.57 C534.47 219.53 538.77 224.68 542.86 229.37 C546.96 234.07 550.69 239.39 554.47 243.73 C558.25 248.07 561.74 252.33 565.54 255.41 C569.33 258.50 573.05 260.87 577.25 262.24 C581.46 263.60 585.86 263.87 590.74 263.60 C595.63 263.34 600.96 261.94 606.57 260.65 C612.17 259.36 618.32 257.25 624.39 255.86 C630.47 254.48 636.97 252.83 643.00 252.32 C649.03 251.80 655.19 251.67 660.55 252.77 C665.91 253.87 671.00 255.89 675.16 258.91 C679.32 261.94 682.81 266.15 685.51 270.91 C688.22 275.67 690.00 281.57 691.37 287.46 C692.74 293.35 693.19 300.05 693.75 306.25 C694.30 312.46 694.20 318.96 694.70 324.69 C695.21 330.42 695.53 335.92 696.79 340.65 C698.04 345.37 699.66 349.48 702.25 353.05 C704.85 356.63 708.26 359.43 712.36 362.09 C716.47 364.75 721.60 366.75 726.90 369.00 C732.19 371.25 738.41 373.16 744.14 375.61 C749.87 378.05 756.10 380.55 761.27 383.67 C766.45 386.80 771.52 390.32 775.21 394.36 C778.90 398.40 781.83 403.02 783.41 407.91 C785.00 412.80 785.35 418.27 784.74 423.70 C784.13 429.14 782.10 434.97 779.75 440.54 C777.40 446.11 773.82 451.79 770.63 457.14 C767.43 462.48 763.52 467.68 760.56 472.61 C757.61 477.55 754.63 482.18 752.87 486.75 C751.11 491.31 750.00 495.58 750.00 500.00 C750.00 504.42 751.11 508.69 752.87 513.25 C754.63 517.82 757.61 522.45 760.56 527.39 C763.52 532.32 767.43 537.52 770.63 542.86 C773.82 548.21 777.40 553.89 779.75 559.46 C782.10 565.03 784.13 570.86 784.74 576.30 C785.35 581.73 785.00 587.20 783.41 592.09 C781.83 596.98 778.90 601.60 775.21 605.64 C771.52 609.68 766.45 613.20 761.27 616.33 C756.10 619.45 749.87 621.95 744.14 624.39 C738.41 626.84 732.19 628.75 726.90 631.00 C721.60 633.25 716.47 635.25 712.36 637.91 C708.26 640.57 704.85 643.37 702.25 646.95 C699.66 650.52 698.04 654.63 696.79 659.35 C695.53 664.08 695.21 669.58 694.70 675.31 C694.20 681.04 694.30 687.54 693.75 693.75 C693.19 699.95 692.74 706.65 691.37 712.54 C690.00 718.43 688.22 724.33 685.51 729.09 C682.81 733.85 679.32 738.06 675.16 741.09 C671.00 744.11 665.91 746.13 660.55 747.23 C655.19 748.33 649.03 748.20 643.00 747.68 C636.97 747.17 630.47 745.52 624.39 744.14 C618.32 742.75 612.17 740.64 606.57 739.35 C600.96 738.06 595.63 736.66 590.74 736.40 C585.86 736.13 581.46 736.40 577.25 737.76 C573.05 739.13 569.33 741.50 565.54 744.59 C561.74 747.67 558.25 751.93 554.47 756.27 C550.69 760.61 546.96 765.93 542.86 770.63 C538.77 775.32 534.47 780.47 529.90 784.43 C525.32 788.39 520.41 792.12 515.43 794.38 C510.45 796.64 505.14 798.00 500.00 798.00 C494.86 798.00 489.55 796.64 484.57 794.38 C479.59 792.12 474.68 788.39 470.10 784.43 C465.53 780.47 461.23 775.32 457.14 770.63 C453.04 765.93 449.31 760.61 445.53 756.27 C441.75 751.93 438.26 747.67 434.46 744.59 C430.67 741.50 426.95 739.13 422.75 737.76 C418.54 736.40 414.14 736.13 409.26 736.40 C404.37 736.66 399.04 738.06 393.43 739.35 C387.83 740.64 381.68 742.75 375.61 744.14 C369.53 745.52 363.03 747.17 357.00 747.68 C350.97 748.20 344.81 748.33 339.45 747.23 C334.09 746.13 329.00 744.11 324.84 741.09 C320.68 738.06 317.19 733.85 314.49 729.09 C311.78 724.33 310.00 718.43 308.63 712.54 C307.26 706.65 306.81 699.95 306.25 693.75 C305.70 687.54 305.80 681.04 305.30 675.31 C304.79 669.58 304.47 664.08 303.21 659.35 C301.96 654.63 300.34 650.52 297.75 646.95 C295.15 643.37 291.74 640.57 287.64 637.91 C283.53 635.25 278.40 633.25 273.10 631.00 C267.81 628.75 261.59 626.84 255.86 624.39 C250.13 621.95 243.90 619.45 238.73 616.33 C233.55 613.20 228.48 609.68 224.79 605.64 C221.10 601.60 218.17 596.98 216.59 592.09 C215.00 587.20 214.65 581.73 215.26 576.30 C215.87 570.86 217.90 565.03 220.25 559.46 C222.60 553.89 226.18 548.21 229.37 542.86 C232.57 537.52 236.48 532.32 239.44 527.39 C242.39 522.45 245.37 517.82 247.13 513.25 C248.89 508.69 250.00 504.42 250.00 500.00 C250.00 495.58 248.89 491.31 247.13 486.75 C245.37 482.18 242.39 477.55 239.44 472.61 C236.48 467.68 232.57 462.48 229.37 457.14 C226.18 451.79 222.60 446.11 220.25 440.54 C217.90 434.97 215.87 429.14 215.26 423.70 C214.65 418.27 215.00 412.80 216.59 407.91 C218.17 403.02 221.10 398.40 224.79 394.36 C228.48 390.32 233.55 386.80 238.73 383.67 C243.90 380.55 250.13 378.05 255.86 375.61 C261.59 373.16 267.81 371.25 273.10 369.00 C278.40 366.75 283.53 364.75 287.64 362.09 C291.74 359.43 295.15 356.63 297.75 353.05 C300.34 349.48 301.96 345.37 303.21 340.65 C304.47 335.92 304.79 330.42 305.30 324.69 C305.80 318.96 305.70 312.46 306.25 306.25 C306.81 300.05 307.26 293.35 308.63 287.46 C310.00 281.57 311.78 275.67 314.49 270.91 C317.19 266.15 320.68 261.94 324.84 258.91 C329.00 255.89 334.09 253.87 339.45 252.77 C344.81 251.67 350.97 251.80 357.00 252.32 C363.03 252.83 369.53 254.48 375.61 255.86 C381.68 257.25 387.83 259.36 393.43 260.65 C399.04 261.94 404.37 263.34 409.26 263.60 C414.14 263.87 418.54 263.60 422.75 262.24 C426.95 260.87 430.67 258.50 434.46 255.41 C438.26 252.33 441.75 248.07 445.53 243.73 C449.31 239.39 453.04 234.07 457.14 229.37 C461.23 224.68 465.53 219.53 470.10 215.57 C474.68 211.61 479.59 207.88 484.57 205.62 C489.55 203.36 494.86 202.00 500.00 202.00 Z" fill="#FF4500" fill-rule="evenodd"></path>
<circle cx="398" cy="398" r="58" fill="#FF4500"></circle><circle cx="602" cy="398" r="58" fill="#FF4500"></circle><circle cx="398" cy="602" r="58" fill="#FF4500"></circle><circle cx="602" cy="602" r="58" fill="#FF4500"></circle>
</g>
</svg>