<svg xmlns="http://www.w3.org/2000/svg" width="512" height="512" viewBox="0 0 512 512">
  <path fill-rule="evenodd" fill="#FF4500" d="M509.141 256L509.012 259.312L508.628 262.615L507.995 265.901L507.121 269.161L506.021 272.387L504.71 275.574L503.209 278.715L501.538 281.807L499.723 284.846L497.789 287.832L495.765 290.764L493.677 293.644L491.556 296.476L489.429 299.264L487.324 302.013L485.268 304.732L483.284 307.429L481.396 310.113L479.623 312.793L477.983 315.48L476.49 318.185L475.153 320.916L473.98 323.684L472.973 326.499L472.133 329.367L471.455 332.297L470.931 335.292L470.55 338.358L470.297 341.496L470.156 344.706L470.106 347.987L470.126 351.335L470.191 354.743L470.278 358.205L470.36 361.711L470.412 365.248L470.407 368.805L470.322 372.367L470.131 375.919L469.813 379.445L469.348 382.929L468.716 386.353L467.903 389.701L466.897 392.958L465.688 396.109L464.269 399.139L462.638 402.037L460.795 404.792L458.744 407.396L456.492 409.843L454.048 412.129L451.426 414.253L448.639 416.216L445.706 418.024L442.644 419.683L439.475 421.202L436.22 422.594L432.901 423.873L429.54 425.055L426.158 426.158L422.778 427.202L419.419 428.207L416.099 429.194L412.837 430.185L409.647 431.201L406.542 432.263L403.533 433.389L400.627 434.599L397.829 435.909L395.142 437.333L392.565 438.883L390.097 440.569L387.731 442.395L385.461 444.367L383.276 446.482L381.166 448.738L379.117 451.128L377.115 453.643L375.147 456.267L373.195 458.987L371.244 461.784L369.28 464.635L367.286 467.519L365.248 470.412L363.154 473.287L360.991 476.118L358.749 478.88L356.419 481.546L353.995 484.09L351.472 486.489L348.846 488.72L346.117 490.764L343.287 492.602L340.358 494.219L337.335 495.605L334.225 496.751L331.035 497.652L327.775 498.308L324.454 498.721L321.084 498.897L317.676 498.848L314.24 498.586L310.788 498.129L307.331 497.495L303.88 496.708L300.443 495.792L297.029 494.772L293.644 493.677L290.296 492.535L286.988 491.374L283.722 490.221L280.5 489.106L277.323 488.052L274.187 487.086L271.09 486.228L268.028 485.499L264.994 484.914L261.983 484.487L258.988 484.227L256 484.139L253.012 484.227L250.017 484.487L247.006 484.914L243.972 485.499L240.91 486.228L237.813 487.086L234.677 488.052L231.5 489.106L228.278 490.221L225.012 491.374L221.704 492.535L218.356 493.677L214.971 494.772L211.557 495.792L208.12 496.708L204.669 497.495L201.212 498.129L197.76 498.586L194.324 498.848L190.916 498.897L187.546 498.721L184.225 498.308L180.965 497.652L177.775 496.751L174.665 495.605L171.642 494.219L168.713 492.602L165.883 490.764L163.154 488.72L160.528 486.489L158.005 484.09L155.581 481.546L153.251 478.88L151.009 476.118L148.846 473.287L146.752 470.412L144.714 467.519L142.72 464.635L140.756 461.784L138.805 458.987L136.853 456.267L134.885 453.643L132.883 451.128L130.834 448.738L128.724 446.482L126.539 444.367L124.269 442.395L121.903 440.569L119.435 438.883L116.858 437.333L114.171 435.909L111.373 434.599L108.467 433.389L105.458 432.263L102.353 431.201L99.163 430.185L95.901 429.194L92.581 428.207L89.222 427.202L85.842 426.158L82.46 425.055L79.099 423.873L75.78 422.594L72.525 421.202L69.356 419.683L66.294 418.024L63.361 416.216L60.574 414.253L57.952 412.129L55.508 409.843L53.256 407.396L51.205 404.792L49.362 402.037L47.731 399.139L46.312 396.109L45.103 392.958L44.097 389.701L43.284 386.353L42.652 382.929L42.187 379.445L41.869 375.919L41.678 372.367L41.593 368.805L41.588 365.248L41.64 361.711L41.722 358.205L41.809 354.743L41.874 351.335L41.894 347.987L41.844 344.706L41.703 341.496L41.45 338.358L41.069 335.292L40.545 332.297L39.867 329.367L39.027 326.499L38.02 323.684L36.847 320.916L35.51 318.185L34.017 315.48L32.377 312.793L30.604 310.113L28.716 307.429L26.732 304.732L24.676 302.013L22.571 299.264L20.444 296.476L18.323 293.644L16.235 290.764L14.211 287.832L12.277 284.846L10.462 281.807L8.791 278.715L7.29 275.574L5.979 272.387L4.879 269.161L4.005 265.901L3.372 262.615L2.988 259.312L2.859 256L2.988 252.688L3.372 249.385L4.005 246.099L4.879 242.839L5.979 239.613L7.29 236.426L8.791 233.285L10.462 230.193L12.277 227.154L14.211 224.168L16.235 221.236L18.323 218.356L20.444 215.524L22.571 212.736L24.676 209.987L26.732 207.268L28.716 204.571L30.604 201.887L32.377 199.207L34.017 196.52L35.51 193.815L36.847 191.084L38.02 188.316L39.027 185.501L39.867 182.633L40.545 179.703L41.069 176.708L41.45 173.642L41.703 170.504L41.844 167.294L41.894 164.013L41.874 160.665L41.809 157.257L41.722 153.795L41.64 150.289L41.588 146.752L41.593 143.195L41.678 139.633L41.869 136.081L42.187 132.555L42.652 129.071L43.284 125.647L44.097 122.299L45.103 119.042L46.312 115.891L47.731 112.861L49.362 109.963L51.205 107.208L53.256 104.604L55.508 102.157L57.952 99.871L60.574 97.747L63.361 95.784L66.294 93.976L69.356 92.317L72.525 90.798L75.78 89.406L79.099 88.127L82.46 86.945L85.842 85.842L89.222 84.798L92.581 83.793L95.901 82.806L99.163 81.815L102.353 80.799L105.458 79.737L108.467 78.611L111.373 77.401L114.171 76.091L116.858 74.667L119.435 73.117L121.903 71.431L124.269 69.605L126.539 67.633L128.724 65.518L130.834 63.262L132.883 60.872L134.885 58.357L136.853 55.733L138.805 53.013L140.756 50.216L142.72 47.365L144.714 44.481L146.752 41.588L148.846 38.713L151.009 35.882L153.251 33.12L155.581 30.454L158.005 27.91L160.528 25.511L163.154 23.28L165.883 21.236L168.713 19.398L171.642 17.781L174.665 16.395L177.775 15.249L180.965 14.348L184.225 13.692L187.546 13.279L190.916 13.103L194.324 13.152L197.76 13.414L201.212 13.871L204.669 14.505L208.12 15.292L211.557 16.208L214.971 17.228L218.356 18.323L221.704 19.465L225.012 20.626L228.278 21.779L231.5 22.894L234.677 23.948L237.813 24.914L240.91 25.772L243.972 26.501L247.006 27.086L250.017 27.513L253.012 27.773L256 27.861L258.988 27.773L261.983 27.513L264.994 27.086L268.028 26.501L271.09 25.772L274.187 24.914L277.323 23.948L280.5 22.894L283.722 21.779L286.988 20.626L290.296 19.465L293.644 18.323L297.029 17.228L300.443 16.208L303.88 15.292L307.331 14.505L310.788 13.871L314.24 13.414L317.676 13.152L321.084 13.103L324.454 13.279L327.775 13.692L331.035 14.348L334.225 15.249L337.335 16.395L340.358 17.781L343.287 19.398L346.117 21.236L348.846 23.28L351.472 25.511L353.995 27.91L356.419 30.454L358.749 33.12L360.991 35.882L363.154 38.713L365.248 41.588L367.286 44.481L369.28 47.365L371.244 50.216L373.195 53.013L375.147 55.733L377.115 58.357L379.117 60.872L381.166 63.262L383.276 65.518L385.461 67.633L387.731 69.605L390.097 71.431L392.565 73.117L395.142 74.667L397.829 76.091L400.627 77.401L403.533 78.611L406.542 79.737L409.647 80.799L412.837 81.815L416.099 82.806L419.419 83.793L422.778 84.798L426.158 85.842L429.54 86.945L432.901 88.127L436.22 89.406L439.475 90.798L442.644 92.317L445.706 93.976L448.639 95.784L451.426 97.747L454.048 99.871L456.492 102.157L458.744 104.604L460.795 107.208L462.638 109.963L464.269 112.861L465.688 115.891L466.897 119.042L467.903 122.299L468.716 125.647L469.348 129.071L469.813 132.555L470.131 136.081L470.322 139.633L470.407 143.195L470.412 146.752L470.36 150.289L470.278 153.795L470.191 157.257L470.126 160.665L470.106 164.013L470.156 167.294L470.297 170.504L470.55 173.642L470.931 176.708L471.455 179.703L472.133 182.633L472.973 185.501L473.98 188.316L475.153 191.084L476.49 193.815L477.983 196.52L479.623 199.207L481.396 201.887L483.284 204.571L485.268 207.268L487.324 209.987L489.429 212.736L491.556 215.524L493.677 218.356L495.765 221.236L497.789 224.168L499.723 227.154L501.538 230.193L503.209 233.285L504.71 236.426L506.021 239.613L507.121 242.839L507.995 246.099L508.628 249.385L509.012 252.688Z M230.998 193.496A37.502 37.502 0 1 0 155.994 193.496A37.502 37.502 0 1 0 230.998 193.496Z M356.006 193.496A37.502 37.502 0 1 0 281.002 193.496A37.502 37.502 0 1 0 356.006 193.496Z M230.998 318.504A37.502 37.502 0 1 0 155.994 318.504A37.502 37.502 0 1 0 230.998 318.504Z M356.006 318.504A37.502 37.502 0 1 0 281.002 318.504A37.502 37.502 0 1 0 356.006 318.504Z"/>
</svg>
