<svg xmlns="http://www.w3.org/2000/svg" viewBox="0 0 512 512" width="512" height="512">
<rect width="512" height="512" rx="113.78" ry="113.78" fill="#FF4500"></rect>
<g transform="translate(256 256) scale(0.435) translate(-500 -500)">
<path d="M500.00 100.00 C506.94 100.00 513.99 100.95 520.83 102.56 C527.67 104.16 534.46 106.79 541.03 109.65 C547.59 112.51 553.98 116.22 560.23 119.74 C566.47 123.26 572.48 127.26 578.49 130.75 C584.50 134.24 590.31 137.77 596.28 140.67 C602.26 143.56 608.16 146.10 614.34 148.11 C620.51 150.11 626.78 151.53 633.32 152.70 C639.85 153.87 646.63 154.43 653.54 155.14 C660.45 155.85 667.67 156.14 674.79 156.96 C681.90 157.79 689.25 158.54 696.25 160.09 C703.25 161.63 710.28 163.50 716.76 166.22 C723.24 168.94 729.50 172.31 735.11 176.39 C740.73 180.47 745.88 185.38 750.46 190.70 C755.05 196.02 759.00 202.14 762.63 208.32 C766.26 214.49 769.25 221.25 772.24 227.76 C775.22 234.28 777.73 241.05 780.54 247.40 C783.35 253.76 785.97 260.03 789.11 265.89 C792.24 271.74 795.52 277.27 799.34 282.52 C803.15 287.77 807.40 292.60 811.99 297.39 C816.59 302.18 821.75 306.61 826.92 311.25 C832.10 315.89 837.76 320.36 843.04 325.21 C848.31 330.06 853.81 335.00 858.57 340.36 C863.32 345.72 867.91 351.37 871.56 357.37 C875.20 363.38 878.28 369.79 880.42 376.39 C882.57 383.00 883.85 389.99 884.43 396.99 C885.01 403.99 884.62 411.26 883.92 418.39 C883.23 425.52 881.68 432.75 880.26 439.77 C878.84 446.80 876.89 453.75 875.43 460.54 C873.97 467.33 872.41 473.95 871.50 480.53 C870.59 487.11 870.00 493.51 870.00 500.00 C870.00 506.49 870.59 512.89 871.50 519.47 C872.41 526.05 873.97 532.67 875.43 539.46 C876.89 546.25 878.84 553.20 880.26 560.23 C881.68 567.25 883.23 574.48 883.92 581.61 C884.62 588.74 885.01 596.01 884.43 603.01 C883.85 610.01 882.57 617.00 880.42 623.61 C878.28 630.21 875.20 636.62 871.56 642.63 C867.91 648.63 863.32 654.28 858.57 659.64 C853.81 665.00 848.31 669.94 843.04 674.79 C837.76 679.64 832.10 684.11 826.92 688.75 C821.75 693.39 816.59 697.82 811.99 702.61 C807.40 707.40 803.15 712.23 799.34 717.48 C795.52 722.73 792.24 728.26 789.11 734.11 C785.97 739.97 783.35 746.24 780.54 752.60 C777.73 758.95 775.22 765.72 772.24 772.24 C769.25 778.75 766.26 785.51 762.63 791.68 C759.00 797.86 755.05 803.98 750.46 809.30 C745.88 814.62 740.73 819.53 735.11 823.61 C729.50 827.69 723.24 831.06 716.76 833.78 C710.28 836.50 703.25 838.37 696.25 839.91 C689.25 841.46 681.90 842.21 674.79 843.04 C667.67 843.86 660.45 844.15 653.54 844.86 C646.63 845.57 639.85 846.13 633.32 847.30 C626.78 848.47 620.51 849.89 614.34 851.89 C608.16 853.90 602.26 856.44 596.28 859.33 C590.31 862.23 584.50 865.76 578.49 869.25 C572.48 872.74 566.47 876.74 560.23 880.26 C553.98 883.78 547.59 887.49 541.03 890.35 C534.46 893.21 527.67 895.84 520.83 897.44 C513.99 899.05 506.94 900.00 500.00 900.00 C493.06 900.00 486.01 899.05 479.17 897.44 C472.33 895.84 465.54 893.21 458.97 890.35 C452.41 887.49 446.02 883.78 439.77 880.26 C433.53 876.74 427.52 872.74 421.51 869.25 C415.50 865.76 409.69 862.23 403.72 859.33 C397.74 856.44 391.84 853.90 385.66 851.89 C379.49 849.89 373.22 848.47 366.68 847.30 C360.15 846.13 353.37 845.57 346.46 844.86 C339.55 844.15 332.33 843.86 325.21 843.04 C318.10 842.21 310.75 841.46 303.75 839.91 C296.75 838.37 289.72 836.50 283.24 833.78 C276.76 831.06 270.50 827.69 264.89 823.61 C259.27 819.53 254.12 814.62 249.54 809.30 C244.95 803.98 241.00 797.86 237.37 791.68 C233.74 785.51 230.75 778.75 227.76 772.24 C224.78 765.72 222.27 758.95 219.46 752.60 C216.65 746.24 214.03 739.97 210.89 734.11 C207.76 728.26 204.48 722.73 200.66 717.48 C196.85 712.23 192.60 707.40 188.01 702.61 C183.41 697.82 178.25 693.39 173.08 688.75 C167.90 684.11 162.24 679.64 156.96 674.79 C151.69 669.94 146.19 665.00 141.43 659.64 C136.68 654.28 132.09 648.63 128.44 642.63 C124.80 636.62 121.72 630.21 119.58 623.61 C117.43 617.00 116.15 610.01 115.57 603.01 C114.99 596.01 115.38 588.74 116.08 581.61 C116.77 574.48 118.32 567.25 119.74 560.23 C121.16 553.20 123.11 546.25 124.57 539.46 C126.03 532.67 127.59 526.05 128.50 519.47 C129.41 512.89 130.00 506.49 130.00 500.00 C130.00 493.51 129.41 487.11 128.50 480.53 C127.59 473.95 126.03 467.33 124.57 460.54 C123.11 453.75 121.16 446.80 119.74 439.77 C118.32 432.75 116.77 425.52 116.08 418.39 C115.38 411.26 114.99 403.99 115.57 396.99 C116.15 389.99 117.43 383.00 119.58 376.39 C121.72 369.79 124.80 363.38 128.44 357.37 C132.09 351.37 136.68 345.72 141.43 340.36 C146.19 335.00 151.69 330.06 156.96 325.21 C162.24 320.36 167.90 315.89 173.08 311.25 C178.25 306.61 183.41 302.18 188.01 297.39 C192.60 292.60 196.85 287.77 200.66 282.52 C204.48 277.27 207.76 271.74 210.89 265.89 C214.03 260.03 216.65 253.76 219.46 247.40 C222.27 241.05 224.78 234.28 227.76 227.76 C230.75 221.25 233.74 214.49 237.37 208.32 C241.00 202.14 244.95 196.02 249.54 190.70 C254.12 185.38 259.27 180.47 264.89 176.39 C270.50 172.31 276.76 168.94 283.24 166.22 C289.72 163.50 296.75 161.63 303.75 160.09 C310.75 158.54 318.10 157.79 325.21 156.96 C332.33 156.14 339.55 155.85 346.46 155.14 C353.37 154.43 360.15 153.87 366.68 152.70 C373.22 151.53 379.49 150.11 385.66 148.11 C391.84 146.10 397.74 143.56 403.72 140.67 C409.69 137.77 415.50 134.24 421.51 130.75 C427.52 127.26 433.53 123.26 439.77 119.74 C446.02 116.22 452.41 112.51 458.97 109.65 C465.54 106.79 472.33 104.16 479.17 102.56 C486.01 100.95 493.06 100.00 500.00 100.00 Z" fill="#161310"></path>
<path d="M500.00 200.00 C505.20 200.00 510.50 200.90 515.60 202.42 C520.69 203.94 525.74 206.42 530.57 209.10 C535.41 211.78 540.06 215.27 544.58 218.51 C549.10 221.75 553.39 225.44 557.70 228.56 C562.00 231.69 566.11 234.82 570.40 237.26 C574.69 239.70 578.92 241.75 583.43 243.21 C587.95 244.68 592.57 245.51 597.48 246.06 C602.39 246.60 607.55 246.49 612.87 246.49 C618.19 246.49 623.82 246.03 629.39 246.06 C634.95 246.10 640.77 246.02 646.25 246.69 C651.73 247.36 657.28 248.32 662.30 250.08 C667.31 251.85 672.13 254.24 676.34 257.29 C680.54 260.35 684.30 264.20 687.53 268.42 C690.76 272.64 693.39 277.62 695.72 282.63 C698.05 287.64 699.78 293.19 701.53 298.47 C703.28 303.76 704.58 309.26 706.22 314.32 C707.87 319.37 709.36 324.32 711.39 328.82 C713.43 333.32 715.65 337.46 718.43 341.30 C721.22 345.14 724.48 348.53 728.13 351.85 C731.77 355.18 736.02 358.12 740.32 361.25 C744.62 364.38 749.46 367.32 753.94 370.61 C758.42 373.91 763.17 377.26 767.21 381.03 C771.26 384.80 775.18 388.83 778.20 393.21 C781.22 397.59 783.71 402.35 785.32 407.29 C786.92 412.24 787.70 417.56 787.84 422.87 C787.97 428.19 787.17 433.76 786.11 439.19 C785.05 444.61 783.18 450.11 781.49 455.42 C779.80 460.72 777.62 465.94 775.98 470.99 C774.34 476.05 772.63 480.93 771.64 485.76 C770.64 490.60 770.00 495.25 770.00 500.00 C770.00 504.75 770.64 509.40 771.64 514.24 C772.63 519.07 774.34 523.95 775.98 529.01 C777.62 534.06 779.80 539.28 781.49 544.58 C783.18 549.89 785.05 555.39 786.11 560.81 C787.17 566.24 787.97 571.81 787.84 577.13 C787.70 582.44 786.92 587.76 785.32 592.71 C783.71 597.65 781.22 602.41 778.20 606.79 C775.18 611.17 771.26 615.20 767.21 618.97 C763.17 622.74 758.42 626.09 753.94 629.39 C749.46 632.68 744.62 635.62 740.32 638.75 C736.02 641.88 731.77 644.82 728.13 648.15 C724.48 651.47 721.22 654.86 718.43 658.70 C715.65 662.54 713.43 666.68 711.39 671.18 C709.36 675.68 707.87 680.63 706.22 685.68 C704.58 690.74 703.28 696.24 701.53 701.53 C699.78 706.81 698.05 712.36 695.72 717.37 C693.39 722.38 690.76 727.36 687.53 731.58 C684.30 735.80 680.54 739.65 676.34 742.71 C672.13 745.76 667.31 748.15 662.30 749.92 C657.28 751.68 651.73 752.64 646.25 753.31 C640.77 753.98 634.95 753.90 629.39 753.94 C623.82 753.97 618.19 753.51 612.87 753.51 C607.55 753.51 602.39 753.40 597.48 753.94 C592.57 754.49 587.95 755.32 583.43 756.79 C578.92 758.25 574.69 760.30 570.40 762.74 C566.11 765.18 562.00 768.31 557.70 771.44 C553.39 774.56 549.10 778.25 544.58 781.49 C540.06 784.73 535.41 788.22 530.57 790.90 C525.74 793.58 520.69 796.06 515.60 797.58 C510.50 799.10 505.20 800.00 500.00 800.00 C494.80 800.00 489.50 799.10 484.40 797.58 C479.31 796.06 474.26 793.58 469.43 790.90 C464.59 788.22 459.94 784.73 455.42 781.49 C450.90 778.25 446.61 774.56 442.30 771.44 C438.00 768.31 433.89 765.18 429.60 762.74 C425.31 760.30 421.08 758.25 416.57 756.79 C412.05 755.32 407.43 754.49 402.52 753.94 C397.61 753.40 392.45 753.51 387.13 753.51 C381.81 753.51 376.18 753.97 370.61 753.94 C365.05 753.90 359.23 753.98 353.75 753.31 C348.27 752.64 342.72 751.68 337.70 749.92 C332.69 748.15 327.87 745.76 323.66 742.71 C319.46 739.65 315.70 735.80 312.47 731.58 C309.24 727.36 306.61 722.38 304.28 717.37 C301.95 712.36 300.22 706.81 298.47 701.53 C296.72 696.24 295.42 690.74 293.78 685.68 C292.13 680.63 290.64 675.68 288.61 671.18 C286.57 666.68 284.35 662.54 281.57 658.70 C278.78 654.86 275.52 651.47 271.87 648.15 C268.23 644.82 263.98 641.88 259.68 638.75 C255.38 635.62 250.54 632.68 246.06 629.39 C241.58 626.09 236.83 622.74 232.79 618.97 C228.74 615.20 224.82 611.17 221.80 606.79 C218.78 602.41 216.29 597.65 214.68 592.71 C213.08 587.76 212.30 582.44 212.16 577.13 C212.03 571.81 212.83 566.24 213.89 560.81 C214.95 555.39 216.82 549.89 218.51 544.58 C220.20 539.28 222.38 534.06 224.02 529.01 C225.66 523.95 227.37 519.07 228.36 514.24 C229.36 509.40 230.00 504.75 230.00 500.00 C230.00 495.25 229.36 490.60 228.36 485.76 C227.37 480.93 225.66 476.05 224.02 470.99 C222.38 465.94 220.20 460.72 218.51 455.42 C216.82 450.11 214.95 444.61 213.89 439.19 C212.83 433.76 212.03 428.19 212.16 422.87 C212.30 417.56 213.08 412.24 214.68 407.29 C216.29 402.35 218.78 397.59 221.80 393.21 C224.82 388.83 228.74 384.80 232.79 381.03 C236.83 377.26 241.58 373.91 246.06 370.61 C250.54 367.32 255.38 364.38 259.68 361.25 C263.98 358.12 268.23 355.18 271.87 351.85 C275.52 348.53 278.78 345.14 281.57 341.30 C284.35 337.46 286.57 333.32 288.61 328.82 C290.64 324.32 292.13 319.37 293.78 314.32 C295.42 309.26 296.72 303.76 298.47 298.47 C300.22 293.19 301.95 287.64 304.28 282.63 C306.61 277.62 309.24 272.64 312.47 268.42 C315.70 264.20 319.46 260.35 323.66 257.29 C327.87 254.24 332.69 251.85 337.70 250.08 C342.72 248.32 348.27 247.36 353.75 246.69 C359.23 246.02 365.05 246.10 370.61 246.06 C376.18 246.03 381.81 246.49 387.13 246.49 C392.45 246.49 397.61 246.60 402.52 246.06 C407.43 245.51 412.05 244.68 416.57 243.21 C421.08 241.75 425.31 239.70 429.60 237.26 C433.89 234.82 438.00 231.69 442.30 228.56 C446.61 225.44 450.90 221.75 455.42 218.51 C459.94 215.27 464.59 211.78 469.43 209.10 C474.26 206.42 479.31 203.94 484.40 202.42 C489.50 200.90 494.80 200.00 500.00 200.00 Z" fill="#FFFFFF"></path>
<circle cx="400" cy="400" r="60" fill="#0A4F86"></circle><circle cx="600" cy="400" r="60" fill="#0A4F86"></circle><circle cx="400" cy="600" r="60" fill="#0A4F86"></circle><circle cx="600" cy="600" r="60" fill="#0A4F86"></circle>
</g>
</svg>