<svg xmlns="http://www.w3.org/2000/svg" width="512" height="512" viewBox="0 0 512 512">
  <rect width="512" height="512" fill="#FF4500"/>
  <path fill-rule="evenodd" fill="#FBF0F4" d="M468.779 256L468.693 258.784L468.435 261.563L468.008 264.33L467.42 267.08L466.678 269.809L465.793 272.511L464.778 275.184L463.646 277.824L462.413 280.431L461.095 283.001L459.711 285.537L458.279 288.038L456.815 290.506L455.34 292.945L453.87 295.359L452.422 297.751L451.012 300.127L449.655 302.492L448.363 304.854L447.147 307.218L446.016 309.59L444.976 311.977L444.033 314.386L443.188 316.821L442.44 319.288L441.788 321.791L441.225 324.333L440.746 326.917L440.341 329.544L439.998 332.214L439.705 334.926L439.449 337.677L439.215 340.463L438.985 343.28L438.745 346.12L438.478 348.977L438.167 351.843L437.797 354.708L437.351 357.562L436.817 360.395L436.181 363.196L435.431 365.956L434.559 368.662L433.555 371.306L432.414 373.876L431.133 376.365L429.709 378.765L428.142 381.068L426.435 383.27L424.593 385.366L422.622 387.354L420.53 389.234L418.326 391.005L416.021 392.671L413.629 394.237L411.161 395.708L408.632 397.091L406.055 398.397L403.445 399.634L400.815 400.815L398.181 401.953L395.553 403.059L392.946 404.147L390.368 405.231L387.831 406.325L385.343 407.441L382.909 408.592L380.536 409.789L378.227 411.044L375.982 412.364L373.804 413.758L371.688 415.231L369.634 416.788L367.635 418.429L365.685 420.156L363.779 421.964L361.906 423.851L360.06 425.81L358.229 427.832L356.405 429.907L354.578 432.023L352.737 434.167L350.873 436.324L348.977 438.478L347.041 440.614L345.058 442.713L343.02 444.761L340.922 446.739L338.761 448.631L336.533 450.423L334.236 452.1L331.87 453.649L329.436 455.058L326.936 456.318L324.374 457.422L321.752 458.365L319.078 459.143L316.355 459.756L313.592 460.206L310.795 460.496L307.97 460.634L305.127 460.628L302.271 460.488L299.41 460.227L296.55 459.86L293.698 459.401L290.859 458.868L288.038 458.279L285.238 457.65L282.462 457L279.713 456.348L276.99 455.71L274.295 455.104L271.626 454.544L268.981 454.045L266.357 453.619L263.751 453.276L261.159 453.025L258.577 452.872L256 452.821L253.423 452.872L250.841 453.025L248.249 453.276L245.643 453.619L243.019 454.045L240.374 454.544L237.705 455.104L235.01 455.71L232.287 456.348L229.538 457L226.762 457.65L223.962 458.279L221.141 458.868L218.302 459.401L215.45 459.86L212.59 460.227L209.729 460.488L206.873 460.628L204.03 460.634L201.205 460.496L198.408 460.206L195.645 459.756L192.922 459.143L190.248 458.365L187.626 457.422L185.064 456.318L182.564 455.058L180.13 453.649L177.764 452.1L175.467 450.423L173.239 448.631L171.078 446.739L168.98 444.761L166.942 442.713L164.959 440.614L163.023 438.478L161.127 436.324L159.263 434.167L157.422 432.023L155.595 429.907L153.771 427.832L151.94 425.81L150.094 423.851L148.221 421.964L146.315 420.156L144.365 418.429L142.366 416.788L140.312 415.231L138.196 413.758L136.018 412.364L133.773 411.044L131.464 409.789L129.091 408.592L126.657 407.441L124.169 406.325L121.632 405.231L119.054 404.147L116.447 403.059L113.819 401.953L111.185 400.815L108.555 399.634L105.945 398.397L103.368 397.091L100.839 395.708L98.371 394.237L95.979 392.671L93.674 391.005L91.47 389.234L89.378 387.354L87.407 385.366L85.565 383.27L83.858 381.068L82.291 378.765L80.867 376.365L79.586 373.876L78.445 371.306L77.441 368.662L76.569 365.956L75.819 363.196L75.183 360.395L74.649 357.562L74.203 354.708L73.833 351.843L73.522 348.977L73.255 346.12L73.015 343.28L72.785 340.463L72.551 337.677L72.295 334.926L72.002 332.214L71.659 329.544L71.254 326.917L70.775 324.333L70.212 321.791L69.56 319.288L68.812 316.821L67.967 314.386L67.024 311.977L65.984 309.59L64.853 307.218L63.637 304.854L62.345 302.492L60.988 300.127L59.578 297.751L58.13 295.359L56.66 292.945L55.185 290.506L53.721 288.038L52.289 285.537L50.905 283.001L49.587 280.431L48.354 277.824L47.222 275.184L46.207 272.511L45.322 269.809L44.58 267.08L43.992 264.33L43.565 261.563L43.307 258.784L43.221 256L43.307 253.216L43.565 250.437L43.992 247.67L44.58 244.92L45.322 242.191L46.207 239.489L47.222 236.816L48.354 234.176L49.587 231.569L50.905 228.999L52.289 226.463L53.721 223.962L55.185 221.494L56.66 219.055L58.13 216.641L59.578 214.249L60.988 211.873L62.345 209.508L63.637 207.146L64.853 204.782L65.984 202.41L67.024 200.023L67.967 197.614L68.812 195.179L69.56 192.712L70.212 190.209L70.775 187.667L71.254 185.083L71.659 182.456L72.002 179.786L72.295 177.074L72.551 174.323L72.785 171.537L73.015 168.72L73.255 165.88L73.522 163.023L73.833 160.157L74.203 157.292L74.649 154.438L75.183 151.605L75.819 148.804L76.569 146.044L77.441 143.338L78.445 140.694L79.586 138.124L80.867 135.635L82.291 133.235L83.858 130.932L85.565 128.73L87.407 126.634L89.378 124.646L91.47 122.766L93.674 120.995L95.979 119.329L98.371 117.763L100.839 116.292L103.368 114.909L105.945 113.603L108.555 112.366L111.185 111.185L113.819 110.047L116.447 108.941L119.054 107.853L121.632 106.769L124.169 105.675L126.657 104.559L129.091 103.408L131.464 102.211L133.773 100.956L136.018 99.636L138.196 98.242L140.312 96.769L142.366 95.212L144.365 93.571L146.315 91.844L148.221 90.036L150.094 88.149L151.94 86.19L153.771 84.168L155.595 82.093L157.422 79.977L159.263 77.833L161.127 75.676L163.023 73.522L164.959 71.386L166.942 69.287L168.98 67.239L171.078 65.261L173.239 63.369L175.467 61.577L177.764 59.9L180.13 58.351L182.564 56.942L185.064 55.682L187.626 54.578L190.248 53.635L192.922 52.857L195.645 52.244L198.408 51.794L201.205 51.504L204.03 51.366L206.873 51.372L209.729 51.512L212.59 51.773L215.45 52.14L218.302 52.599L221.141 53.132L223.962 53.721L226.762 54.35L229.538 55L232.287 55.652L235.01 56.29L237.705 56.896L240.374 57.456L243.019 57.955L245.643 58.381L248.249 58.724L250.841 58.975L253.423 59.128L256 59.179L258.577 59.128L261.159 58.975L263.751 58.724L266.357 58.381L268.981 57.955L271.626 57.456L274.295 56.896L276.99 56.29L279.713 55.652L282.462 55L285.238 54.35L288.038 53.721L290.859 53.132L293.698 52.599L296.55 52.14L299.41 51.773L302.271 51.512L305.127 51.372L307.97 51.366L310.795 51.504L313.592 51.794L316.355 52.244L319.078 52.857L321.752 53.635L324.374 54.578L326.936 55.682L329.436 56.942L331.87 58.351L334.236 59.9L336.533 61.577L338.761 63.369L340.922 65.261L343.02 67.239L345.058 69.287L347.041 71.386L348.977 73.522L350.873 75.676L352.737 77.833L354.578 79.977L356.405 82.093L358.229 84.168L360.06 86.19L361.906 88.149L363.779 90.036L365.685 91.844L367.635 93.571L369.634 95.212L371.688 96.769L373.804 98.242L375.982 99.636L378.227 100.956L380.536 102.211L382.909 103.408L385.343 104.559L387.831 105.675L390.368 106.769L392.946 107.853L395.553 108.941L398.181 110.047L400.815 111.185L403.445 112.366L406.055 113.603L408.632 114.909L411.161 116.292L413.629 117.763L416.021 119.329L418.326 120.995L420.53 122.766L422.622 124.646L424.593 126.634L426.435 128.73L428.142 130.932L429.709 133.235L431.133 135.635L432.414 138.124L433.555 140.694L434.559 143.338L435.431 146.044L436.181 148.804L436.817 151.605L437.351 154.438L437.797 157.292L438.167 160.157L438.478 163.023L438.745 165.88L438.985 168.72L439.215 171.537L439.449 174.323L439.705 177.074L439.998 179.786L440.341 182.456L440.746 185.083L441.225 187.667L441.788 190.209L442.44 192.712L443.188 195.179L444.033 197.614L444.976 200.023L446.016 202.41L447.147 204.782L448.363 207.146L449.655 209.508L451.012 211.873L452.422 214.249L453.87 216.641L455.34 219.055L456.815 221.494L458.279 223.962L459.711 226.463L461.095 228.999L462.413 231.569L463.646 234.176L464.778 236.816L465.793 239.489L466.678 242.191L467.42 244.92L468.008 247.67L468.435 250.437L468.693 253.216Z M407.605 256A151.605 151.605 0 1 0 104.395 256A151.605 151.605 0 1 0 407.605 256Z"/>
  <circle cx="202.805" cy="202.805" r="31.917" fill="#0A4F86"/>
  <circle cx="309.195" cy="202.805" r="31.917" fill="#0A4F86"/>
  <circle cx="202.805" cy="309.195" r="31.917" fill="#0A4F86"/>
  <circle cx="309.195" cy="309.195" r="31.917" fill="#0A4F86"/>
</svg>
